<svg width="165" height="165" viewBox="0 0 165 165" fill="none" xmlns="http://www.w3.org/2000/svg">
<path d="M116.061 92.2207H119.425C119.425 92.2207 119.963 88.6193 123.313 88.4521L116.061 92.2207Z" fill="#FDF4C2"/>
<path d="M119.425 92.6051H116.06C115.848 92.6051 115.676 92.4329 115.676 92.2206C115.676 92.0083 115.848 91.8362 116.06 91.8362H119.115C119.356 90.8907 120.3 88.2177 123.294 88.0681C123.506 88.0577 123.687 88.221 123.698 88.4333C123.708 88.6456 123.545 88.826 123.332 88.837C122.087 88.8992 121.119 89.4849 120.455 90.5772C119.94 91.4231 119.806 92.2707 119.805 92.2789C119.777 92.4665 119.615 92.6062 119.425 92.6062V92.6051Z" fill="#0C0C0C"/>
<path d="M118.605 134.065H117.019C117.019 134.065 116.574 131.087 113.805 130.949L118.605 134.065Z" fill="#FDF4C2"/>
<path d="M118.605 134.45H117.02C116.829 134.45 116.667 134.31 116.639 134.122C116.622 134.014 116.2 131.454 113.786 131.333C113.573 131.323 113.41 131.142 113.42 130.93C113.431 130.717 113.612 130.553 113.824 130.564C116.046 130.676 117.046 132.497 117.335 133.68H118.605C118.817 133.68 118.989 133.852 118.989 134.065C118.989 134.277 118.817 134.449 118.605 134.449V134.45Z" fill="#0C0C0C"/>
<path d="M130.907 105.085C130.907 105.085 131 101.82 127.35 101.82L130.907 105.085Z" fill="#FDF4C2"/>
<path d="M130.908 105.469C130.904 105.469 130.901 105.469 130.897 105.469C130.685 105.463 130.518 105.287 130.524 105.075C130.524 105.052 130.537 103.866 129.729 103.04C129.187 102.486 128.386 102.205 127.351 102.205C127.139 102.205 126.967 102.033 126.967 101.82C126.967 101.608 127.139 101.436 127.351 101.436C128.606 101.436 129.594 101.797 130.287 102.51C131.324 103.578 131.295 105.035 131.294 105.096C131.288 105.305 131.117 105.47 130.909 105.47L130.908 105.469Z" fill="#0C0C0C"/>
<path d="M57.7595 122.598C57.7595 122.598 57.6665 119.333 61.3169 119.333L57.7595 122.598Z" fill="#FDF4C2"/>
<path d="M57.7588 122.983C57.5515 122.983 57.3804 122.818 57.3744 122.609C57.3727 122.548 57.3436 121.091 58.3814 120.023C59.0744 119.31 60.0617 118.949 61.3162 118.949C61.5285 118.949 61.7007 119.121 61.7007 119.333C61.7007 119.546 61.5285 119.718 61.3162 119.718C60.2806 119.718 59.4809 119.999 58.9386 120.553C58.1268 121.383 58.1433 122.576 58.1438 122.588C58.1482 122.8 57.981 122.976 57.7687 122.982C57.7654 122.982 57.7621 122.982 57.7588 122.982V122.983Z" fill="#0C0C0C"/>
<path d="M36.3153 69.5925L34.9832 69.0546L35.5211 67.7225C35.8528 66.9008 35.4557 65.9658 34.634 65.6342C33.8123 65.3025 32.8773 65.6996 32.5456 66.5213L32.0077 67.8534L30.6756 67.3155C29.8539 66.9839 28.9189 67.381 28.5873 68.2027C28.2556 69.0244 28.6527 69.9594 29.4744 70.291L30.8065 70.8289L30.2686 72.161C29.937 72.9827 30.3341 73.9177 31.1558 74.2494C31.9775 74.581 32.9125 74.1839 33.2441 73.3622L33.782 72.0301L35.1141 72.568C35.9358 72.8997 36.8708 72.5026 37.2025 71.6809C37.5341 70.8592 37.137 69.9242 36.3153 69.5925Z" fill="#FDD608"/>
<path d="M31.7544 74.7499C31.5069 74.7499 31.2555 74.7037 31.0124 74.6052C30.5196 74.4061 30.1341 74.0272 29.9262 73.5382C29.7183 73.0493 29.7139 72.5086 29.9124 72.0158L30.3062 71.0407L29.3311 70.6469C28.8383 70.4478 28.4527 70.0688 28.2448 69.5799C28.0369 69.0909 28.0325 68.5503 28.2311 68.0575C28.4302 67.5647 28.8086 67.1791 29.2981 66.9712C29.787 66.7633 30.3277 66.7589 30.8205 66.9575L31.7956 67.3513L32.1894 66.3761C32.6003 65.3592 33.7613 64.8658 34.7783 65.2767C35.2711 65.4758 35.6566 65.8547 35.8645 66.3437C36.0724 66.8326 36.0768 67.3733 35.8783 67.8661L35.4845 68.8412L36.4596 69.235C37.4766 69.6459 37.9699 70.8069 37.5591 71.8239C37.36 72.3167 36.981 72.7022 36.4921 72.9101C36.0031 73.118 35.4625 73.1224 34.9697 72.9239L33.9945 72.5301L33.6007 73.5052C33.2883 74.2791 32.5414 74.7493 31.7538 74.7493L31.7544 74.7499ZM30.0758 67.5828C29.9141 67.5828 29.7524 67.6153 29.5995 67.6807C29.2997 67.8083 29.0671 68.0443 28.9455 68.3468C28.8234 68.6487 28.8267 68.9804 28.9538 69.2801C29.0814 69.5799 29.3179 69.8125 29.6198 69.9341L30.9519 70.472C31.0465 70.5099 31.1219 70.5842 31.162 70.6782C31.2022 70.7723 31.2027 70.8779 31.1648 70.9725L30.6269 72.3046C30.5048 72.6065 30.5081 72.9382 30.6351 73.2379C30.7627 73.5377 30.9987 73.7703 31.3012 73.8919C31.6037 74.0134 31.9348 74.0107 32.2345 73.8836C32.5343 73.756 32.7664 73.5201 32.8885 73.2176L33.4264 71.8855C33.5061 71.6886 33.73 71.5934 33.9269 71.6726L35.259 72.2105C35.5609 72.3326 35.8926 72.3293 36.1923 72.2023C36.4921 72.0747 36.7242 71.8387 36.8463 71.5362C37.0982 70.9125 36.7957 70.2008 36.172 69.9489L34.8399 69.411C34.7453 69.3731 34.6699 69.2988 34.6298 69.2048C34.5896 69.1107 34.5891 69.0051 34.627 68.9105L35.1649 67.5784C35.287 67.2765 35.2837 66.9448 35.1567 66.6451C35.0291 66.3453 34.7931 66.1132 34.4906 65.9911C33.8669 65.7392 33.1547 66.0417 32.9033 66.6654L32.3654 67.9975C32.2857 68.1944 32.0618 68.2896 31.8649 68.2104L30.5328 67.6725C30.3854 67.6131 30.2303 67.5834 30.0758 67.5834V67.5828Z" fill="#0C0C0C"/>
<path d="M127.606 116.295L125.92 116.713L125.502 115.027C125.245 113.988 124.193 113.354 123.154 113.611C122.114 113.869 121.48 114.92 121.737 115.96L122.155 117.645L120.47 118.062C119.43 118.32 118.796 119.371 119.053 120.411C119.311 121.45 120.362 122.085 121.402 121.827L123.087 121.41L123.505 123.095C123.762 124.134 124.814 124.769 125.853 124.511C126.893 124.254 127.527 123.202 127.269 122.163L126.852 120.477L128.537 120.06C129.577 119.803 130.211 118.751 129.953 117.711C129.696 116.672 128.645 116.038 127.606 116.295Z" fill="#FFFAF3"/>
<path d="M125.388 124.953C124.344 124.953 123.393 124.245 123.131 123.188L122.806 121.876L121.495 122.201C120.251 122.509 118.988 121.748 118.68 120.504C118.531 119.902 118.625 119.277 118.946 118.746C119.267 118.214 119.775 117.839 120.377 117.69L121.689 117.364L121.364 116.053C121.215 115.45 121.309 114.826 121.629 114.294C121.95 113.763 122.458 113.387 123.061 113.238C124.304 112.93 125.567 113.691 125.875 114.935L126.2 116.246L127.512 115.921C128.114 115.772 128.739 115.866 129.271 116.187C129.802 116.508 130.177 117.016 130.326 117.618C130.475 118.22 130.381 118.845 130.06 119.376C129.74 119.908 129.232 120.283 128.629 120.432L127.318 120.757L127.643 122.069C127.951 123.313 127.189 124.576 125.946 124.884C125.759 124.93 125.572 124.952 125.388 124.952V124.953ZM123.088 121.025C123.261 121.025 123.418 121.142 123.461 121.317L123.878 123.003C124.085 123.835 124.929 124.344 125.761 124.138C126.593 123.931 127.102 123.087 126.896 122.255L126.479 120.57C126.428 120.364 126.554 120.155 126.76 120.104L128.445 119.687C128.848 119.587 129.188 119.336 129.403 118.98C129.617 118.625 129.68 118.207 129.58 117.804C129.481 117.401 129.23 117.061 128.874 116.846C128.518 116.632 128.101 116.569 127.698 116.669L126.012 117.086C125.806 117.137 125.598 117.011 125.547 116.805L125.129 115.12C125.03 114.717 124.779 114.377 124.423 114.162C124.068 113.948 123.65 113.885 123.246 113.985C122.843 114.084 122.503 114.335 122.289 114.691C122.074 115.046 122.011 115.464 122.111 115.867L122.529 117.553C122.58 117.759 122.454 117.967 122.248 118.018L120.562 118.436C120.159 118.535 119.819 118.786 119.605 119.142C119.39 119.497 119.327 119.915 119.427 120.319C119.633 121.151 120.478 121.66 121.31 121.454L122.995 121.036C123.026 121.029 123.057 121.025 123.088 121.025V121.025Z" fill="#0C0C0C"/>
<path d="M77.5826 99.7002L76.7664 99.0506L77.416 98.2344C77.8164 97.7312 77.7333 96.9986 77.2301 96.5976C76.7268 96.1972 75.9942 96.2803 75.5933 96.7835L74.9437 97.5997L74.1275 96.9502C73.6243 96.5498 72.8917 96.6328 72.4907 97.1361C72.0903 97.6393 72.1734 98.3719 72.6766 98.7729L73.4928 99.4224L72.8433 100.239C72.4429 100.742 72.5259 101.474 73.0292 101.875C73.5324 102.276 74.265 102.193 74.666 101.69L75.3155 100.873L76.1317 101.523C76.6349 101.923 77.3675 101.84 77.7685 101.337C78.1689 100.834 78.0858 100.101 77.5826 99.7002Z" fill="#FFFAF3"/>
<path d="M73.7524 102.418C73.4251 102.418 73.11 102.308 72.8504 102.101C72.2234 101.602 72.1194 100.686 72.6183 100.059L73.088 99.469L72.4978 98.9993C71.8708 98.5005 71.7669 97.5842 72.2657 96.9572C72.5072 96.6536 72.8531 96.4622 73.2387 96.4182C73.6242 96.3747 74.0043 96.4831 74.3079 96.7251L74.898 97.1948L75.3677 96.6046C75.6092 96.301 75.9551 96.1096 76.3407 96.0656C76.7262 96.0211 77.1063 96.1305 77.4099 96.3725C78.0369 96.8714 78.1408 97.7877 77.642 98.4147L77.1723 99.0048L77.7624 99.4745C78.066 99.716 78.2574 100.062 78.3014 100.447C78.3454 100.833 78.2365 101.213 77.9945 101.517C77.4957 102.144 76.5794 102.248 75.9524 101.749L75.3622 101.279L74.8925 101.869C74.6511 102.173 74.3051 102.364 73.9196 102.408C73.8635 102.415 73.8079 102.418 73.7524 102.418ZM73.4042 96.9858C73.3707 96.9858 73.3371 96.9874 73.3036 96.9913C73.0709 97.0177 72.8625 97.1332 72.7167 97.3163C72.4159 97.6942 72.4786 98.2464 72.857 98.5472L73.6732 99.1968C73.798 99.2958 73.8184 99.4778 73.7194 99.6021L73.0698 100.418C72.769 100.796 72.8317 101.348 73.2101 101.649C73.3932 101.795 73.622 101.86 73.8547 101.834C74.0873 101.808 74.2958 101.692 74.4415 101.509L75.0911 100.693C75.1901 100.568 75.3716 100.548 75.4964 100.647L76.3126 101.296C76.6905 101.597 77.2427 101.534 77.5435 101.156C77.8444 100.778 77.7817 100.225 77.4033 99.925L76.5871 99.2754C76.5271 99.2276 76.4886 99.1583 76.4798 99.0824C76.471 99.0065 76.493 98.93 76.5409 98.8701L77.1904 98.0539C77.4913 97.676 77.4286 97.1238 77.0502 96.8224C76.867 96.6767 76.6377 96.6112 76.4056 96.6376C76.1729 96.664 75.9645 96.7795 75.8187 96.9627L75.1692 97.7789C75.1213 97.8388 75.052 97.8773 74.9761 97.8861C74.8997 97.8944 74.8238 97.8729 74.7638 97.8251L73.9476 97.1755C73.7909 97.0507 73.6011 96.9847 73.4037 96.9847L73.4042 96.9858Z" fill="#0C0C0C"/>
<path d="M108.335 40.8009C110.404 40.8009 112.08 39.1243 112.08 37.056C112.08 34.9877 110.404 33.311 108.335 33.311C106.267 33.311 104.59 34.9877 104.59 37.056C104.59 39.1243 106.267 40.8009 108.335 40.8009Z" fill="#FFFAF3"/>
<path d="M108.335 41.1859C106.058 41.1859 104.205 39.3335 104.205 37.056C104.205 34.7784 106.057 32.926 108.335 32.926C110.613 32.926 112.465 34.7784 112.465 37.056C112.465 39.3335 110.613 41.1859 108.335 41.1859ZM108.335 33.6955C106.482 33.6955 104.975 35.203 104.975 37.056C104.975 38.9089 106.482 40.4165 108.335 40.4165C110.188 40.4165 111.696 38.9089 111.696 37.056C111.696 35.203 110.188 33.6955 108.335 33.6955Z" fill="#0C0C0C"/>
<path d="M107.272 30.4061C108.349 30.4061 109.222 29.5326 109.222 28.4552C109.222 27.3778 108.349 26.5044 107.272 26.5044C106.194 26.5044 105.321 27.3778 105.321 28.4552C105.321 29.5326 106.194 30.4061 107.272 30.4061Z" fill="#0C0C0C"/>
<path d="M107.271 30.7904C105.983 30.7904 104.935 29.7426 104.935 28.4545C104.935 27.1664 105.983 26.1187 107.271 26.1187C108.559 26.1187 109.607 27.1664 109.607 28.4545C109.607 29.7426 108.559 30.7904 107.271 30.7904ZM107.271 26.8887C106.407 26.8887 105.705 27.591 105.705 28.4551C105.705 29.3191 106.407 30.0215 107.271 30.0215C108.135 30.0215 108.837 29.3191 108.837 28.4551C108.837 27.591 108.135 26.8887 107.271 26.8887Z" fill="#0C0C0C"/>
<path d="M48.6302 121.293C50.6985 121.293 52.3752 119.616 52.3752 117.548C52.3752 115.479 50.6985 113.803 48.6302 113.803C46.5619 113.803 44.8853 115.479 44.8853 117.548C44.8853 119.616 46.5619 121.293 48.6302 121.293Z" fill="#0C0C0C"/>
<path d="M48.6299 121.678C46.3529 121.678 44.5 119.825 44.5 117.548C44.5 115.27 46.3524 113.418 48.6299 113.418C50.9075 113.418 52.7599 115.27 52.7599 117.548C52.7599 119.825 50.9075 121.678 48.6299 121.678ZM48.6299 114.187C46.777 114.187 45.2694 115.695 45.2694 117.548C45.2694 119.401 46.777 120.908 48.6299 120.908C50.4829 120.908 51.9905 119.401 51.9905 117.548C51.9905 115.695 50.4829 114.187 48.6299 114.187Z" fill="#0C0C0C"/>
<path d="M82.7741 101.353C83.6189 101.353 84.3031 100.669 84.3031 99.8244C84.3031 98.9802 83.6189 98.2954 82.7741 98.2954C81.9299 98.2954 81.2451 98.9802 81.2451 99.8244C81.2451 100.669 81.9299 101.353 82.7741 101.353Z" fill="#0C0C0C"/>
<path d="M82.7739 101.738C81.7184 101.738 80.8599 100.879 80.8599 99.8244C80.8599 98.7695 81.7184 97.9104 82.7739 97.9104C83.8293 97.9104 84.6879 98.769 84.6879 99.8244C84.6879 100.88 83.8293 101.738 82.7739 101.738ZM82.7739 98.6799C82.143 98.6799 81.6293 99.193 81.6293 99.8244C81.6293 100.456 82.1425 100.969 82.7739 100.969C83.4053 100.969 83.9184 100.456 83.9184 99.8244C83.9184 99.193 83.4053 98.6799 82.7739 98.6799Z" fill="#0C0C0C"/>
<path d="M53.1528 127.765C54.7241 127.765 55.9977 126.491 55.9977 124.919C55.9977 123.348 54.7241 122.074 53.1528 122.074C51.5814 122.074 50.3076 123.348 50.3076 124.919C50.3076 126.491 51.5814 127.765 53.1528 127.765Z" fill="#FFFAF3"/>
<path d="M53.1529 128.149C51.372 128.149 49.9233 126.701 49.9233 124.92C49.9233 123.139 51.372 121.69 53.1529 121.69C54.9338 121.69 56.3823 123.139 56.3823 124.92C56.3823 126.701 54.9338 128.149 53.1529 128.149ZM53.1529 122.459C51.7961 122.459 50.6928 123.563 50.6928 124.92C50.6928 126.277 51.7966 127.38 53.1529 127.38C54.5092 127.38 55.6129 126.276 55.6129 124.92C55.6129 123.563 54.5092 122.459 53.1529 122.459Z" fill="#0C0C0C"/>
<path d="M73.5181 141.04C73.5181 141.04 78.2756 132.412 73.1474 129.995C68.0192 127.579 66.8279 133.818 69.7644 134.682C72.7008 135.546 73.7249 138.721 73.5181 141.04Z" fill="#0C0C0C"/>
<path d="M73.5181 141.425C73.4807 141.425 73.4427 141.42 73.4059 141.408C73.2321 141.355 73.1188 141.187 73.1353 141.006C73.3074 139.075 72.5231 135.895 69.656 135.051C68.7144 134.774 68.061 134.01 67.8624 132.956C67.6309 131.724 68.1033 130.411 69.0383 129.688C69.6549 129.212 71.0304 128.572 73.3118 129.647C74.4674 130.192 75.2484 131.071 75.6339 132.261C76.7917 135.836 73.9757 141.008 73.8552 141.226C73.7859 141.352 73.6556 141.425 73.5181 141.425ZM70.982 129.831C70.4111 129.831 69.9112 129.986 69.5086 130.297C68.7963 130.848 68.4388 131.859 68.6181 132.815C68.7611 133.574 69.2182 134.12 69.8727 134.313C72.2443 135.011 73.5549 137.194 73.8596 139.423C74.6054 137.675 75.6092 134.682 74.9008 132.497C74.579 131.504 73.9515 130.8 72.9829 130.343C72.258 130.002 71.581 129.831 70.9815 129.831H70.982Z" fill="#0C0C0C"/>
<path d="M127.155 40.1629L119.883 39.0354L122.615 45.4308L127.155 40.1629Z" fill="#0C0C0C"/>
<path d="M122.616 45.8153C122.596 45.8153 122.576 45.8136 122.557 45.8109C122.425 45.7905 122.314 45.7042 122.262 45.5821L119.529 39.1872C119.474 39.0585 119.494 38.9106 119.58 38.8C119.665 38.6895 119.804 38.6345 119.943 38.6559L127.215 39.7829C127.353 39.8043 127.468 39.8989 127.517 40.0298C127.565 40.1607 127.538 40.3081 127.447 40.4137L122.907 45.6816C122.833 45.7669 122.727 45.8153 122.616 45.8153ZM120.51 39.5222L122.727 44.7125L126.412 40.4374L120.51 39.5227V39.5222Z" fill="#0C0C0C"/>
<path d="M31.9316 46.6772L27.4678 55.7112L36.9437 54.7738L31.9316 46.6772Z" fill="#FFFAF3"/>
<path d="M27.4681 56.0961C27.3427 56.0961 27.2239 56.0345 27.1518 55.9306C27.0721 55.8156 27.0616 55.6666 27.1232 55.5412L31.587 46.5073C31.6492 46.3819 31.774 46.2999 31.9137 46.2933C32.054 46.2873 32.1854 46.3566 32.2591 46.4754L37.2713 54.5714C37.3411 54.6841 37.3477 54.8255 37.2889 54.9443C37.23 55.0632 37.114 55.1435 36.982 55.1567L27.506 56.0945C27.4934 56.0956 27.4807 56.0961 27.4681 56.0961ZM31.9698 47.4698L28.1204 55.2607L36.2923 54.452L31.9698 47.4698Z" fill="#0C0C0C"/>
<path d="M28.5172 57.4827L27.4678 55.7112L36.9437 54.7737V56.6489L28.5172 57.4827Z" fill="#0C0C0C"/>
<path d="M28.5166 57.8666C28.3819 57.8666 28.2554 57.7956 28.1855 57.6779L27.1367 55.9069C27.0696 55.7936 27.0652 55.6545 27.1246 55.5373C27.184 55.4202 27.2989 55.341 27.4298 55.3283L36.9058 54.3909C37.0136 54.3799 37.1214 54.4156 37.2017 54.4888C37.282 54.5619 37.3282 54.6653 37.3282 54.7737V56.6483C37.3282 56.8463 37.178 57.0119 36.9811 57.0312L28.5546 57.8649C28.5419 57.866 28.5293 57.8666 28.5166 57.8666ZM28.1063 56.034L28.7229 57.0746L36.5587 56.2991V55.1974L28.1063 56.0334V56.034Z" fill="#0C0C0C"/>
<path d="M125.364 95.0476L115.341 96.0844L121.183 103.603L125.364 95.0476Z" fill="#FDD608"/>
<path d="M121.184 103.987C121.066 103.987 120.953 103.932 120.88 103.838L115.038 96.3198C114.952 96.2098 114.932 96.0613 114.987 95.9326C115.042 95.8039 115.163 95.7159 115.302 95.7016L125.324 94.6649C125.463 94.6506 125.599 94.7122 125.679 94.8266C125.759 94.941 125.771 95.09 125.709 95.216L121.529 103.771C121.471 103.891 121.355 103.971 121.223 103.985C121.21 103.986 121.197 103.987 121.184 103.987ZM116.07 96.3946L121.109 102.879L124.714 95.5003L116.07 96.3941V96.3946Z" fill="#0C0C0C"/>
<path d="M114.402 97.916L115.342 96.0845L121.184 103.603L119.598 104.602L114.402 97.916Z" fill="#FFFAF3"/>
<path d="M119.598 104.987C119.483 104.987 119.369 104.935 119.294 104.838L114.098 98.1519C114.006 98.0336 113.991 97.873 114.06 97.7399L114.999 95.9085C115.059 95.7913 115.175 95.7132 115.306 95.7011C115.437 95.689 115.565 95.7445 115.646 95.8479L121.488 103.366C121.555 103.452 121.582 103.562 121.564 103.669C121.545 103.776 121.482 103.87 121.39 103.928L119.803 104.927C119.74 104.967 119.669 104.987 119.599 104.987H119.598ZM114.856 97.8731L119.688 104.091L120.62 103.504L115.408 96.7972L114.856 97.8736L114.856 97.8731Z" fill="#0C0C0C"/>
<path d="M139.07 57.7012C139.07 57.7012 149.381 70.9991 137.597 78.7161C137.597 78.7161 156.747 69.3067 139.07 57.7012Z" fill="#0C0C0C"/>
<path d="M137.598 79.1009C137.464 79.1009 137.334 79.0311 137.263 78.9073C137.163 78.7308 137.217 78.5058 137.387 78.3942C140.412 76.4125 142.204 73.8754 142.71 70.852C143.265 67.5432 142.169 64.2168 141.154 62.0091C140.043 59.5957 138.779 57.9529 138.767 57.9369C138.652 57.7884 138.66 57.5778 138.788 57.4397C138.916 57.3017 139.125 57.2769 139.281 57.3798C144.591 60.8662 147.165 64.532 146.932 68.2764C146.766 70.9428 145.121 73.6565 142.174 76.1254C139.974 77.9679 137.856 79.0173 137.767 79.0613C137.712 79.0883 137.655 79.1009 137.597 79.1009H137.598ZM140.543 59.2041C142.016 61.634 144.257 66.2683 143.47 70.9763C143.177 72.7242 142.49 74.3176 141.415 75.7448C143.628 73.9491 145.972 71.3349 146.165 68.2263C146.353 65.1859 144.464 62.1565 140.543 59.2041Z" fill="#0C0C0C"/>
<path d="M145.919 79.3118C145.919 79.3118 143.603 84.3866 138.051 85.2969C140.997 86.6609 146.312 86.9821 145.919 79.3118Z" fill="#0C0C0C"/>
<path d="M141.317 86.4419C140.104 86.4419 138.877 86.1031 137.889 85.6455C137.736 85.5745 137.647 85.4118 137.67 85.2446C137.692 85.0774 137.822 84.9442 137.989 84.9167C143.264 84.0516 145.546 79.2001 145.569 79.1511C145.642 78.99 145.817 78.9003 145.991 78.9333C146.165 78.9669 146.294 79.1143 146.303 79.2914C146.464 82.4187 145.719 84.562 144.09 85.6631C143.265 86.2208 142.296 86.4414 141.317 86.4414L141.317 86.4419ZM139.387 85.3859C140.803 85.7951 142.436 85.8518 143.659 85.0257C144.807 84.2496 145.438 82.807 145.54 80.728C144.574 82.1662 142.607 84.4383 139.387 85.3859Z" fill="#0C0C0C"/>
<path d="M21.9132 96.4866C21.9132 96.4866 16.2631 109.585 27.5705 113.427C27.5705 113.427 9.85887 109.755 21.9132 96.4866Z" fill="#0C0C0C"/>
<path d="M27.5703 113.811C27.5445 113.811 27.5181 113.809 27.4917 113.803C27.4092 113.786 25.4413 113.371 23.2391 112.321C20.2823 110.911 18.3463 109.019 17.6406 106.85C16.6501 103.804 17.9915 100.23 21.6276 96.2274C21.7541 96.0883 21.9625 96.0608 22.1204 96.1625C22.2782 96.2643 22.3398 96.4656 22.2656 96.6383C22.2381 96.7021 19.5519 103.06 21.7618 108.029C22.8106 110.388 24.806 112.081 27.6935 113.062C27.886 113.127 27.9944 113.331 27.941 113.527C27.8948 113.698 27.7403 113.811 27.5703 113.811V113.811ZM20.8812 98.3064C18.4442 101.446 17.6005 104.234 18.3727 106.61C19.1317 108.947 21.3449 110.534 23.4195 111.548C22.3998 110.654 21.61 109.583 21.0583 108.34C19.4754 104.776 20.2042 100.678 20.8818 98.3064H20.8812Z" fill="#0C0C0C"/>
<path d="M20.8774 115.674C20.8774 115.674 25.113 118.515 33.1595 117.146C29.2358 119.215 21.7558 121.392 20.8774 115.674Z" fill="#0C0C0C"/>
<path d="M25.5467 119.722C24.4725 119.722 23.5496 119.53 22.7879 119.146C21.5179 118.507 20.7474 117.358 20.4971 115.731C20.474 115.58 20.5422 115.43 20.6709 115.348C20.7996 115.266 20.9646 115.268 21.0911 115.353C21.1456 115.388 25.3294 118.087 33.0949 116.766C33.2813 116.734 33.4628 116.842 33.5239 117.021C33.5844 117.2 33.5063 117.397 33.3391 117.485C31.6907 118.354 29.7828 119.06 28.1053 119.421C27.1758 119.622 26.3216 119.722 25.5467 119.722V119.722ZM21.4459 116.422C21.7511 117.364 22.3165 118.048 23.1338 118.46C24.9741 119.386 27.9672 118.891 30.7084 117.836C25.9201 118.199 22.8071 117.075 21.4459 116.422Z" fill="#0C0C0C"/>
<path d="M104.402 63.9508C104.142 65.9764 103.69 67.9421 103.065 69.8275C102.43 71.7415 101.616 73.5747 100.643 75.3061C95.2556 84.9008 84.9816 91.3815 73.1956 91.3815C71.4912 91.3815 69.8197 91.2467 68.1884 90.9855C66.1358 90.6566 64.1509 90.1313 62.2523 89.4257C61.6308 89.1947 61.0192 88.945 60.4169 88.6777C58.2257 87.7042 56.1698 86.4865 54.2769 85.0614C46.6578 79.3194 41.7314 70.196 41.7314 59.9204C41.7314 42.5423 55.8173 28.4563 73.1951 28.4563C89.3244 28.4563 102.618 40.5943 104.443 56.2348C103.828 56.4543 102.722 57.0945 101.49 58.9546C100.046 61.1397 102.008 62.2133 104.401 63.9519L104.402 63.9508Z" fill="#FDF4C2"/>
<path d="M73.1958 91.7658C71.4924 91.7658 69.7875 91.6311 68.1276 91.3649C66.0728 91.0354 64.0509 90.5041 62.1182 89.7853C61.5017 89.5559 60.8763 89.3013 60.2609 89.0279C58.0697 88.0544 55.978 86.823 54.0456 85.3671C50.1879 82.4599 46.9924 78.6555 44.8045 74.3644C42.5104 69.8648 41.3472 65.0051 41.3472 59.9187C41.3472 42.3569 55.6343 28.0696 73.1958 28.0696C89.3575 28.0696 102.956 40.158 104.826 56.188C104.847 56.3662 104.742 56.535 104.573 56.595C104.055 56.7798 103.007 57.3589 101.812 59.1651C100.75 60.7717 101.709 61.5549 103.979 63.173C104.19 63.3237 104.407 63.4788 104.628 63.6388C104.742 63.7213 104.802 63.8594 104.784 63.9991C104.525 66.0198 104.069 68.0213 103.431 69.9479C102.795 71.8657 101.97 73.7313 100.98 75.4935C95.3437 85.5299 84.6979 91.7647 73.1969 91.7647L73.1958 91.7658ZM73.1958 28.8396C56.0589 28.8396 42.1166 42.7815 42.1166 59.9192C42.1166 64.8824 43.2518 69.625 45.4903 74.0151C47.6254 78.2028 50.7445 81.9159 54.5092 84.7528C56.3949 86.1729 58.4354 87.3752 60.5738 88.3251C61.175 88.5918 61.785 88.8404 62.3867 89.0642C64.2721 89.7655 66.2443 90.2836 68.2496 90.6048C69.8688 90.8644 71.5331 90.9964 73.1958 90.9964C84.4191 90.9964 94.8081 84.9118 100.308 75.1174C101.275 73.398 102.08 71.5775 102.7 69.7065C103.299 67.8986 103.733 66.0231 103.991 64.1283C103.836 64.0167 103.682 63.9072 103.532 63.8005C101.451 62.3172 99.6541 61.0357 101.171 58.7417C102.272 57.079 103.292 56.3266 104.027 55.9889C102.073 40.4902 88.8697 28.8401 73.1958 28.8401V28.8396Z" fill="#0C0C0C"/>
<path d="M93.9992 62.1467C93.7374 70.8779 90.389 81.6689 76.9068 86.834C73.1597 87.8399 67.7482 87.6727 62.5738 84.8199C56.559 81.5017 50.8651 74.5519 48.4819 61.5928C48.4819 61.5928 48.9896 61.3811 49.9037 61.0159C55.8952 58.6074 79.3725 49.4916 92.3085 49.0664C92.3085 49.0664 92.9608 51.0552 93.4569 54.1545C93.8127 56.3612 94.0899 59.131 93.9992 62.1472V62.1467Z" fill="black"/>
<path d="M72.47 87.7827C69.0666 87.7827 65.5158 86.8807 62.388 85.1564C53.223 80.1008 49.5617 69.5892 48.1036 61.6621C48.0706 61.4839 48.1669 61.3068 48.3341 61.2375C48.3341 61.2375 48.8434 61.0252 49.7602 60.6583C56.4837 57.9556 79.4242 49.1043 92.2959 48.6814C92.4686 48.6759 92.6209 48.7837 92.6743 48.9459C92.7012 49.0284 93.3414 50.9996 93.837 54.0928C94.2786 56.8298 94.4623 59.5429 94.3842 62.1576C94.1301 70.6458 90.9154 81.879 77.0444 87.1925C77.0317 87.1975 77.0191 87.2013 77.0064 87.2046C75.5627 87.5924 74.032 87.7821 72.47 87.7821V87.7827ZM48.9176 61.8287C50.3828 69.5551 53.9749 79.6361 62.7598 84.4827C67.146 86.9005 72.3881 87.6419 76.7875 86.4671C82.7924 84.1626 87.2639 80.5183 90.0772 75.6354C92.27 71.8294 93.4602 67.2875 93.6148 62.1351C93.6918 59.5688 93.5108 56.9046 93.0769 54.2155C92.6963 51.8384 92.2183 50.1064 92.0275 49.4618C79.2279 50.0036 56.6905 58.7025 50.0473 61.3728C49.5386 61.5763 49.1563 61.7319 48.9176 61.8293V61.8287Z" fill="#0C0C0C"/>
<path d="M93.9996 62.1468C93.7378 70.878 90.3894 81.669 76.9072 86.8341C73.1601 87.84 67.7486 87.6728 62.5742 84.82C63.842 81.9039 66.4484 76.7773 70.7324 72.132C75.876 66.5539 83.4374 61.6716 94.0001 62.1468H93.9996Z" fill="#FDF4C2"/>
<path d="M72.4702 87.7827C69.0668 87.7827 65.516 86.8807 62.3881 85.1565C62.2143 85.0608 62.1417 84.8485 62.2209 84.6664C63.4106 81.9302 66.061 76.6293 70.4489 71.8712C77.0104 64.7553 84.9403 61.3547 94.0164 61.7622C94.2265 61.7716 94.3899 61.9481 94.3838 62.1582C94.1297 70.6464 90.915 81.8796 77.044 87.1931C77.0313 87.1981 77.0187 87.2019 77.006 87.2052C75.5623 87.593 74.0316 87.7827 72.4696 87.7827H72.4702ZM63.069 84.6494C67.3909 86.9341 72.4911 87.6144 76.7877 86.4671C82.7926 84.1626 87.2641 80.5183 90.0773 75.6354C92.2163 71.9235 93.401 67.5114 93.6012 62.5163C84.9216 62.2286 77.3228 65.5512 71.0143 72.3926C66.8695 76.8872 64.3005 81.879 63.0685 84.6499L63.069 84.6494Z" fill="#0C0C0C"/>
<path d="M93.4564 54.154C92.1348 54.5197 88.7165 55.4989 88.436 55.5814C86.3988 60.4594 82.1501 57.4162 79.8571 56.4719C78.8682 56.6105 75.7156 57.6989 72.0631 59.0459C65.4499 61.4813 57.196 64.7587 57.196 64.7587C57.196 64.7587 56.5718 65.6503 55.5779 66.4241C54.8296 67.0071 53.7736 66.995 53.0295 66.406C50.8262 64.6608 50.1139 62.5059 49.9038 61.0154C55.8953 58.607 79.3726 49.4911 92.3086 49.0659C92.3086 49.0659 92.9609 51.0547 93.457 54.154H93.4564Z" fill="#FFFAF3"/>
<path d="M54.3183 67.2424C53.7793 67.2424 53.2398 67.0642 52.7899 66.7078C50.4887 64.8851 49.7429 62.6356 49.5223 61.0692C49.4976 60.8943 49.596 60.7243 49.7599 60.6583C52.5869 59.522 60.0601 56.5922 68.3844 53.9306C78.7079 50.6295 86.7527 48.864 92.2956 48.6814C92.4661 48.6759 92.6207 48.7837 92.674 48.9459C92.701 49.0284 93.3412 50.9996 93.8367 54.0928C93.8675 54.2864 93.7482 54.4723 93.5595 54.5246C92.4507 54.8309 88.95 55.831 88.7184 55.8992C88.1398 57.2016 87.3412 58.053 86.343 58.4314C84.5071 59.1271 82.4457 58.1283 80.7885 57.3264C80.4382 57.157 80.1054 56.9953 79.8095 56.8694C79.1336 56.9909 77.2454 57.5453 72.1959 59.4065C66.059 61.6665 58.414 64.6898 57.4405 65.0754C57.2458 65.335 56.6606 66.0687 55.8141 66.7276C55.3736 67.0708 54.8469 67.2418 54.3189 67.2418L54.3183 67.2424ZM50.3319 61.2584C50.5838 62.6636 51.3076 64.5523 53.2678 66.1044C53.8794 66.589 54.7319 66.5956 55.3411 66.1209C56.2739 65.3944 56.8745 64.5463 56.8806 64.538C56.9235 64.477 56.984 64.4291 57.0533 64.4016C57.1358 64.3686 65.3874 61.0945 71.9297 58.6855C76.2582 57.0899 78.9075 56.2171 79.8035 56.0917C79.8711 56.0823 79.9399 56.0911 80.0031 56.117C80.3436 56.2572 80.7225 56.4404 81.1235 56.6345C82.6475 57.3721 84.5439 58.2906 86.0696 57.7125C86.9166 57.3919 87.5744 56.6461 88.081 55.4339C88.1255 55.3272 88.2163 55.2458 88.3274 55.2133C88.3274 55.2133 91.9354 54.1775 93.0211 53.8761C92.6509 51.6739 92.2093 50.0756 92.0272 49.4624C86.5652 49.6939 78.6925 51.4435 68.6187 54.6643C60.5843 57.2335 53.3437 60.0533 50.3314 61.2589L50.3319 61.2584Z" fill="#0C0C0C"/>
<path d="M93.9995 62.1466C83.4373 61.6714 75.8754 66.5538 70.7318 72.1319C69.926 68.3616 69.5372 63.1201 72.0628 59.0457C75.7159 57.6993 78.8685 56.6103 79.8568 56.4717C82.1498 57.4161 86.3991 60.4592 88.4357 55.5813C88.7168 55.4988 89.0226 55.408 89.3454 55.314C91.0554 56.8875 92.4672 59.236 93.9984 62.1466H93.9995Z" fill="#0C0C0C"/>
<path d="M70.7315 72.5163C70.6974 72.5163 70.6633 72.5119 70.6298 72.5026C70.4912 72.4646 70.385 72.3524 70.3553 72.2122C69.5474 68.4326 69.131 63.0448 71.7358 58.8428C71.7809 58.7696 71.8491 58.7141 71.93 58.6844C76.2585 57.0888 78.9078 56.216 79.8038 56.0906C79.8714 56.0813 79.9402 56.09 80.0034 56.1159C80.3439 56.2561 80.7228 56.4393 81.1238 56.6334C82.6478 57.3715 84.5442 58.2895 86.0699 57.7115C86.9169 57.3908 87.5747 56.645 88.0813 55.4328C88.1258 55.3261 88.2166 55.2447 88.3277 55.2122C88.3277 55.2122 88.9772 55.0209 89.2385 54.9442C89.3677 54.9062 89.5074 54.9392 89.6064 55.0308C91.3499 56.6351 92.7596 58.9638 94.3397 61.9674C94.4041 62.0895 94.398 62.2363 94.3238 62.3529C94.2495 62.4695 94.1186 62.5366 93.9817 62.5311C85.1421 62.134 77.4146 65.4516 71.0142 72.3926C70.9405 72.4729 70.8371 72.5163 70.7315 72.5163ZM72.321 59.3604C70.0836 63.0696 70.2948 67.7797 70.962 71.325C77.2584 64.752 84.7818 61.5296 93.3475 61.7391C91.9775 59.18 90.7235 57.1642 89.2429 55.7452L88.7182 55.8997C88.1396 57.2021 87.341 58.0536 86.3427 58.432C84.5068 59.1277 82.4454 58.1289 80.7883 57.327C80.4379 57.1576 80.1052 56.9959 79.8093 56.87C79.1388 56.991 77.2771 57.5366 72.321 59.3615V59.3604Z" fill="#0C0C0C"/>
<path d="M79.3178 37.0562C78.1292 38.8376 76.6492 40.8336 75.8715 42.8042C75.6333 43.396 75.4661 44.0302 75.4546 44.6418L73.5708 43.9796C73.6082 43.9301 73.6847 43.8371 73.7243 43.7909C76.2862 40.9276 80.6174 39.9761 84.2282 41.0679C81.0101 41.8247 77.6628 42.747 75.3066 45.1692C75.2736 45.2072 75.206 45.2831 75.173 45.321C74.7946 45.7506 74.1401 45.7918 73.7105 45.4139C73.4636 45.1961 73.3453 44.8821 73.3607 44.5769C73.4163 43.6045 73.7281 42.7432 74.1258 41.9913C75.3187 39.848 77.1678 38.1754 79.3178 37.0562Z" fill="#0C0C0C"/>
<path d="M53.6038 43.9349C55.7062 43.8067 57.8298 44.6141 59.3802 46.0546C59.9275 46.5655 60.3856 47.1678 60.7371 47.8316C61.1914 48.6484 60.3713 49.6131 59.4968 49.3199C58.0553 48.9536 56.5362 48.7243 55.055 48.7595C53.5207 48.7881 52.0159 49.2693 50.9209 50.4007C51.7459 47.1161 55.924 46.4792 58.789 47.0066C59.2405 47.0831 59.6596 47.1689 60.1046 47.3042L58.8649 48.7925C57.7467 46.6068 55.6551 45.2191 53.6038 43.9343V43.9349Z" fill="#0C0C0C"/>
<path d="M81.2896 46.3142C80.9189 44.6224 81.751 42.858 82.8708 41.6084C83.8823 40.5178 85.1759 39.7313 86.525 39.1307C86.9634 38.9668 87.4017 38.799 87.8439 38.6483C89.2266 38.3381 90.6506 38.1896 92.0619 38.4696C93.5254 38.7308 94.9428 39.7203 94.9428 41.307C94.945 41.3571 94.8801 41.3697 94.8669 41.3208C94.7453 40.6685 94.3774 40.0717 93.84 39.6851C92.1191 38.5845 89.907 38.9541 88.021 39.3754C88.0524 39.3628 86.8176 39.8407 86.8248 39.8369C86.4337 40.0129 86.0465 40.1982 85.6599 40.3841C83.4505 41.5479 81.3066 43.6407 81.366 46.3054C81.3715 46.35 81.2951 46.361 81.2896 46.3142Z" fill="#0C0C0C"/>
<path d="M42.8231 57.1384C41.7407 55.1936 43.2263 52.9588 44.8647 51.8841C46.7776 50.5608 50.4241 49.232 52.7011 50.0889C53.651 50.4481 54.1988 51.4326 54.2554 52.3962C54.2708 52.5771 54.2736 52.757 54.2747 52.9352C54.2747 52.9561 54.2576 52.9737 54.2367 52.9737C54.218 52.9737 54.2021 52.9605 54.1988 52.9429C54.1344 52.6063 54.0514 52.2719 53.9265 51.9545C53.5602 50.9084 52.6098 50.4068 51.5373 50.4305C49.1564 50.4893 45.7629 51.7681 44.0359 53.423C43.0596 54.3382 42.4084 55.7904 42.893 57.1071C42.9007 57.1269 42.8908 57.1489 42.871 57.1566C42.8528 57.1637 42.8325 57.1555 42.8226 57.1384H42.8231Z" fill="#0C0C0C"/>
<path d="M135.512 76.6425C133.019 80.8379 121.679 82.2536 110.057 79.1356C105.639 78.045 102.461 76.4175 100.644 75.306C101.617 73.5746 102.431 71.7414 103.065 69.8274C106.245 70.8988 112.423 72.7226 115.828 72.0186C115.828 72.0186 121.011 76.6106 126.962 72.3305C130.129 70.0518 130.434 67.3909 130.693 64.8862C132.34 66.6869 138.007 72.4476 135.512 76.643V76.6425Z" fill="#0C0C0C"/>
<path d="M122.404 81.2103C118.436 81.2103 114.138 80.6289 109.958 79.5075C105.549 78.4196 102.35 76.8004 100.443 75.6344C100.266 75.5266 100.207 75.2983 100.308 75.1179C101.274 73.3986 102.08 71.5781 102.7 69.707C102.732 69.6097 102.802 69.5294 102.894 69.4837C102.985 69.4381 103.091 69.4309 103.188 69.4634C106.469 70.5689 112.463 72.3217 115.75 71.6419C115.868 71.6177 115.991 71.6496 116.082 71.7288C116.28 71.9015 121.01 75.9132 126.737 72.0176C129.81 69.6828 130.076 67.1132 130.311 64.8461C130.327 64.6954 130.429 64.5678 130.573 64.5205C130.718 64.4732 130.876 64.5145 130.978 64.6261C131.061 64.7169 131.154 64.8175 131.256 64.9281C133.199 67.0291 138.357 72.6094 135.843 76.8394C134.552 79.0114 131.145 80.4942 126.249 81.0145C125.015 81.1454 123.728 81.2103 122.404 81.2103ZM101.16 75.168C103.049 76.2867 106.065 77.7541 110.15 78.7628C115.643 80.2362 121.329 80.7637 126.168 80.25C130.749 79.7632 134.035 78.3772 135.182 76.4467C137.294 72.8954 132.991 67.9536 130.984 65.7685C130.724 67.9063 130.143 70.4 127.195 72.6369C127.19 72.6407 127.184 72.6446 127.179 72.6484C121.535 76.4946 116.639 73.1324 115.727 72.4301C112.358 73.029 106.666 71.4258 103.307 70.3142C102.73 71.9857 102.009 73.6153 101.161 75.168H101.16Z" fill="#0C0C0C"/>
<path d="M45.7447 55.8877C46.1862 55.6331 46.3963 55.1705 46.214 54.855C46.0317 54.5393 45.5262 54.49 45.0847 54.7448C44.6433 54.9997 44.4332 55.462 44.6155 55.7777C44.7977 56.0934 45.3033 56.1429 45.7447 55.8877Z" fill="#FFFAF3"/>
<path d="M48.2867 53.6544C48.7505 53.3866 48.9787 52.9136 48.7964 52.5979C48.6142 52.2823 48.0905 52.2434 47.6267 52.5112C47.1629 52.7789 46.9347 53.2519 47.117 53.5676C47.2992 53.8833 47.8229 53.9221 48.2867 53.6544Z" fill="#FFFAF3"/>
<path d="M50.9004 54.1283C51.3423 53.8732 51.5529 53.4104 51.3706 53.0947C51.1883 52.7791 50.6823 52.73 50.2404 52.9852C49.7985 53.2403 49.5879 53.7031 49.7702 54.0187C49.9524 54.3344 50.4585 54.3835 50.9004 54.1283Z" fill="#FFFAF3"/>
<path d="M85.4567 44.3672C85.8984 44.1124 86.1085 43.6499 85.9259 43.3342C85.7438 43.0185 85.2384 42.9692 84.7967 43.2241C84.3551 43.4789 84.145 43.9414 84.3276 44.2571C84.5096 44.5728 85.0151 44.6221 85.4567 44.3672Z" fill="#FFFAF3"/>
<path d="M87.9997 42.1341C88.4633 41.8664 88.6916 41.3933 88.5095 41.0777C88.3269 40.762 87.8033 40.7232 87.3397 40.9909C86.8755 41.2587 86.6477 41.7317 86.8298 42.0474C87.0118 42.363 87.5355 42.4018 87.9997 42.1341Z" fill="#FFFAF3"/>
<path d="M90.613 42.6081C91.0547 42.3529 91.2653 41.8902 91.0827 41.5745C90.9007 41.2588 90.3947 41.2098 89.953 41.4649C89.5108 41.72 89.3002 42.1828 89.4828 42.4985C89.6648 42.8142 90.1708 42.8632 90.613 42.6081Z" fill="#FFFAF3"/>
<path d="M102.07 90.3364L100.751 83.9273C100.751 83.9273 95.3863 80.3974 90.4423 84.2369C90.2229 76.3868 93.9722 73.5994 95.6976 73.0593C98.656 72.132 101.39 73.8958 103.342 78.8744C105.296 83.8525 104.175 87.7613 102.07 90.337V90.3364Z" fill="#0C0C0C"/>
<path d="M102.071 90.7214C102.04 90.7214 102.009 90.7175 101.979 90.7104C101.835 90.6752 101.724 90.5597 101.694 90.4145L100.407 84.167C99.5599 83.6588 94.9795 81.2009 90.6785 84.541C90.5641 84.6301 90.4095 84.6472 90.2781 84.585C90.1472 84.5229 90.0619 84.3931 90.0581 84.2479C89.843 76.5594 93.4296 73.3667 95.5828 72.6918C98.8839 71.6567 101.766 73.8028 103.7 78.7336C106.058 84.7379 103.878 88.7331 102.369 90.58C102.294 90.6708 102.184 90.7214 102.071 90.7214ZM95.5498 82.0743C98.5809 82.0743 100.927 83.5824 100.962 83.606C101.048 83.6621 101.107 83.7501 101.128 83.8497L102.275 89.4201C103.585 87.4934 104.943 84.0048 102.984 79.0146C101.736 75.8312 99.4779 72.2777 95.8133 73.4261C95.6048 73.4915 90.8479 75.081 90.8187 83.4949C92.4335 82.4318 94.0731 82.0737 95.5504 82.0737L95.5498 82.0743Z" fill="#0C0C0C"/>
<path d="M100.42 84.2298L99.8941 79.2925L99.0845 84.0307L100.42 84.2298Z" fill="#FFFAF3"/>
<path d="M119.992 74.0873C119.992 74.0873 120.868 76.2835 122.349 77.2416C122.349 77.2416 118.415 75.7962 118.161 73.3833L119.992 74.0873Z" fill="#FFFAF3"/>
<path d="M106.572 103.178C104.293 102.861 103.689 103.674 103.689 103.674C99.2473 100.743 95.5018 102.153 95.3846 102.197L95.3824 102.199C91.8795 94.3762 90.5639 88.5456 90.4429 84.2369C95.3863 80.3974 100.752 83.9273 100.752 83.9273L102.071 90.3364C103.313 97.823 106.572 103.178 106.572 103.178Z" fill="#FFFAF3"/>
<path d="M103.696 104.063C103.621 104.063 103.545 104.041 103.477 103.996C99.3135 101.248 95.7847 102.461 95.5306 102.554C95.463 102.582 95.3882 102.59 95.3145 102.577C95.1902 102.554 95.084 102.472 95.0323 102.357C91.872 95.2981 90.1984 89.2052 90.0592 84.248C90.0559 84.1254 90.1109 84.0088 90.2077 83.9334C95.3095 79.9712 100.907 83.5693 100.964 83.6062C101.049 83.6623 101.108 83.7503 101.129 83.8498L102.449 90.259C103.666 97.5932 106.869 102.925 106.901 102.978C106.978 103.105 106.976 103.265 106.894 103.39C106.813 103.514 106.666 103.579 106.52 103.56C104.555 103.286 103.996 103.908 103.99 103.914C103.917 104.013 103.808 104.063 103.696 104.063ZM97.8731 101.427C99.3878 101.427 101.426 101.791 103.655 103.195C103.989 102.965 104.658 102.672 105.877 102.726C104.982 101.065 102.684 96.3799 101.691 90.3992L100.407 84.1661C99.5704 83.6639 95.089 81.2582 90.8336 84.4224C91.0058 89.1689 92.6063 94.9873 95.5928 101.725C96.0317 101.599 96.8281 101.426 97.8725 101.426L97.8731 101.427Z" fill="#0C0C0C"/>
<path d="M130.693 64.8858C130.434 67.3905 130.129 70.0514 126.962 72.3301C121.011 76.6107 115.828 72.0182 115.828 72.0182C113.65 69.5828 113.689 67.4961 113.689 67.4961C113.689 67.4961 111.914 65.7785 112.24 64.8858C112.24 64.8858 109.719 68.7039 106.571 65.7284C105.861 65.0453 105.113 64.4684 104.402 63.9508C102.009 62.2117 100.047 61.1387 101.491 58.9535C102.722 57.0934 103.828 56.4527 104.444 56.2338C104.767 56.1183 104.954 56.1183 104.954 56.1183C104.954 56.1183 106.2 48.4644 114.478 45.9712C118.561 45.2326 125.85 56.9686 125.85 56.9686C125.85 56.9686 130.638 58.9689 130.693 64.8858Z" fill="#FFFAF3"/>
<path d="M121.648 74.4606C118.095 74.4606 115.611 72.3398 115.575 72.3079C115.563 72.2974 115.552 72.2864 115.541 72.2749C113.624 70.131 113.349 68.2357 113.31 67.6626C112.988 67.337 112.287 66.5741 111.974 65.8113C111.428 66.3783 110.529 67.0961 109.392 67.227C108.33 67.3497 107.292 66.9394 106.307 66.0082C105.568 65.2971 104.78 64.702 104.175 64.2625C103.957 64.1035 103.741 63.9501 103.532 63.8005C101.451 62.3171 99.6539 61.0357 101.171 58.7416C102.423 56.849 103.572 56.1362 104.315 55.8712C104.437 55.8277 104.543 55.798 104.632 55.7776C104.963 54.3519 106.861 47.8636 114.366 45.6031C114.38 45.5987 114.394 45.5954 114.409 45.5926C116.25 45.2599 118.801 47.0617 121.992 50.9485C124.077 53.4879 125.776 56.1318 126.115 56.6675C126.871 57.0349 131.025 59.3092 131.078 64.8818C131.078 64.8961 131.078 64.9109 131.076 64.9252C130.837 67.2297 130.54 70.098 127.194 72.6363C127.189 72.6401 127.184 72.6439 127.178 72.6478C125.196 73.9986 123.306 74.4606 121.648 74.4606ZM116.098 71.7436C116.466 72.056 121.123 75.8373 126.737 72.0181C129.799 69.6905 130.074 67.1302 130.309 64.8686C130.282 62.5388 129.505 60.5643 127.998 59.0006C126.862 57.822 125.712 57.3286 125.701 57.3242C125.628 57.2934 125.565 57.2401 125.524 57.1724C123.539 53.9768 117.711 45.8187 114.567 46.3472C106.632 48.7502 105.346 56.1071 105.334 56.1808C105.304 56.3667 105.143 56.5036 104.955 56.5036C104.959 56.5036 104.818 56.5097 104.574 56.5966C104.056 56.7814 103.008 57.3605 101.813 59.1667C100.751 60.7733 101.71 61.5565 103.98 63.1746C104.191 63.3253 104.408 63.4804 104.629 63.6404C105.253 64.0942 106.069 64.7102 106.84 65.4516C107.648 66.2161 108.477 66.5571 109.301 66.4636C110.83 66.2898 111.91 64.6898 111.921 64.6739C112.029 64.5117 112.241 64.4555 112.416 64.5436C112.589 64.6315 112.67 64.8356 112.603 65.0188C112.446 65.4467 113.289 66.5725 113.958 67.2204C114.034 67.2946 114.077 67.3975 114.075 67.5036C114.075 67.5212 114.08 69.4749 116.099 71.7436H116.098Z" fill="#0C0C0C"/>
<path d="M69.2929 114.258C68.0636 115.743 65.7861 117.63 62.1066 117.699C54.9645 107.7 59.8351 94.5879 62.2529 89.425C64.1515 90.1312 66.1364 90.6559 68.189 90.9848C63.717 103.328 65.8983 110.328 69.2934 114.258H69.2929Z" fill="#0C0C0C"/>
<path d="M62.1064 118.084C61.9821 118.084 61.8655 118.024 61.7935 117.923C54.5364 107.763 59.4532 94.4945 61.9046 89.2612C61.9893 89.0797 62.1994 88.9939 62.3869 89.0638C64.2723 89.7645 66.2446 90.2831 68.2499 90.6043C68.3632 90.6225 68.4622 90.6901 68.5205 90.7891C68.5788 90.8881 68.5898 91.0075 68.5508 91.1153C66.5268 96.7016 65.7271 101.62 66.1731 105.734C66.529 109.015 67.6768 111.798 69.5842 114.006C69.7069 114.148 69.7091 114.358 69.5897 114.502C68.2703 116.096 65.902 118.012 62.1141 118.083C62.1119 118.083 62.1092 118.083 62.107 118.083L62.1064 118.084ZM62.4529 89.9075C60.0318 95.1902 55.5928 107.7 62.3017 117.309C65.4917 117.187 67.5624 115.642 68.7878 114.257C66.9046 111.971 65.7678 109.134 65.4075 105.818C64.9598 101.695 65.7216 96.8078 67.6713 91.2885C65.8915 90.9767 64.1398 90.513 62.4529 89.908V89.9075Z" fill="#0C0C0C"/>
<path d="M76.7678 127.31C76.2062 127.132 75.6595 126.948 75.1288 126.76C68.7906 124.482 64.6722 121.293 62.1064 117.699C65.7859 117.63 68.0635 115.743 69.2927 114.258C71.0973 116.345 73.2417 117.567 74.9154 118.263C76.5313 118.935 77.7066 119.117 77.7066 119.117C82.7232 122.16 79.0492 126.669 76.7678 127.31Z" fill="#FFFAF3"/>
<path d="M76.7681 127.694C76.7291 127.694 76.69 127.688 76.6526 127.676C76.1142 127.507 75.5741 127.325 75.0004 127.122C69.0753 124.993 64.6324 121.898 61.7933 117.923C61.7102 117.807 61.6987 117.654 61.7625 117.527C61.8268 117.399 61.9561 117.318 62.0991 117.315C65.5954 117.249 67.7795 115.483 68.9966 114.013C69.0687 113.926 69.1759 113.875 69.2887 113.874C69.4042 113.872 69.5098 113.921 69.584 114.007C71.3935 116.1 73.5622 117.284 75.0631 117.908C76.618 118.554 77.7543 118.735 77.7658 118.737C77.8153 118.744 77.8632 118.762 77.9061 118.788C80.4086 120.306 80.7331 122.096 80.5642 123.33C80.2826 125.391 78.4275 127.243 76.8715 127.68C76.8374 127.689 76.8022 127.694 76.7676 127.694H76.7681ZM62.8438 118.046C65.6015 121.619 69.7738 124.426 75.2589 126.397C75.782 126.582 76.2781 126.75 76.7703 126.906C77.9116 126.523 79.561 124.995 79.803 123.226C79.9977 121.801 79.2255 120.508 77.5695 119.484C77.2736 119.43 76.1901 119.209 74.7689 118.618C73.2718 117.996 71.1422 116.842 69.2986 114.841C68.0303 116.248 65.9584 117.783 62.8443 118.046H62.8438Z" fill="#0C0C0C"/>
<path d="M60.4177 88.6766C55.6816 95.6379 48.4108 103.715 42.148 107.97C35.7058 112.344 32.5279 110.644 30.9912 107.23C30.9912 107.23 34.3479 108.368 37.9163 106.945C44.387 103.929 42.979 100.472 42.979 100.472C44.0966 99.8603 44.4217 97.3 44.4217 97.3C44.4217 97.3 46.4704 99.0352 47.7783 98.8251C49.0884 98.6172 52.1046 95.2782 53.8107 92.4908C55.5188 89.7018 52.087 87.636 52.087 87.636L54.2782 85.0603C56.1706 86.4859 58.227 87.7031 60.4182 88.6766H60.4177Z" fill="#0C0C0C"/>
<path d="M35.5677 110.973C35.0694 110.973 34.5986 110.91 34.1559 110.785C32.6456 110.357 31.4625 109.215 30.6403 107.387C30.5776 107.248 30.6034 107.084 30.7063 106.971C30.8091 106.858 30.9697 106.816 31.1144 106.865C31.1463 106.876 34.3803 107.936 37.7628 106.592C43.7704 103.788 42.6704 100.743 42.6209 100.614C42.5511 100.434 42.6242 100.227 42.7936 100.135C43.5669 99.7111 43.9552 97.9098 44.0394 97.2515C44.0575 97.1118 44.1505 96.993 44.2814 96.9418C44.4128 96.8907 44.5619 96.9154 44.6691 97.0067C45.2021 97.4572 46.7888 98.5946 47.7161 98.4461C48.8123 98.2723 51.7212 95.1659 53.4812 92.291C53.8706 91.6558 53.9894 91.0112 53.8349 90.3759C53.4884 88.9503 51.9027 87.9757 51.8868 87.9664C51.7905 87.9081 51.724 87.8102 51.7064 87.6985C51.6882 87.5874 51.7196 87.4736 51.7927 87.3878L53.9839 84.8121C54.1159 84.657 54.3458 84.6317 54.5086 84.7544C56.3944 86.1745 58.4349 87.3762 60.5733 88.3266C60.6773 88.3728 60.7559 88.463 60.7873 88.5725C60.8186 88.6819 60.7994 88.8002 60.7356 88.8942C56.3823 95.2929 49.0136 103.772 42.3635 108.289C39.7334 110.075 37.4553 110.974 35.5677 110.974V110.973ZM31.721 107.814C32.4069 108.992 33.2935 109.741 34.3649 110.044C36.2585 110.58 38.8039 109.775 41.9312 107.652C48.3679 103.279 55.4996 95.1285 59.8407 88.8381C57.9108 87.9466 56.0628 86.8543 54.337 85.5843L52.6557 87.561C53.2233 87.9851 54.271 88.9157 54.5823 90.1895C54.7886 91.0326 54.639 91.8747 54.1379 92.6925C52.577 95.2429 49.425 98.9543 47.8377 99.2062C46.7833 99.375 45.4281 98.5346 44.69 97.9973C44.525 98.7755 44.1576 100.026 43.4239 100.632C43.6373 101.596 43.7732 104.639 38.0779 107.294C38.0713 107.297 38.0647 107.3 38.0581 107.303C35.4495 108.343 32.9767 108.073 31.721 107.814V107.814Z" fill="#0C0C0C"/>
<path d="M53.8101 92.4908C52.104 95.2782 49.0878 98.6172 47.7777 98.8251C46.4698 99.0347 44.4211 97.3 44.4211 97.3C44.4211 97.3 44.096 99.8602 42.9784 100.472C42.9784 100.472 44.3864 103.929 37.9157 106.945C34.3473 108.368 30.9906 107.23 30.9906 107.23C23.0811 101.595 26.7221 94.0264 30.4769 90.337C36.1089 74.2423 41.2069 79.0301 45.7482 81.8483C50.2879 84.6681 50.0129 87.6365 50.0129 87.6365C50.9611 86.8901 52.0864 87.6365 52.0864 87.6365C52.0864 87.6365 55.5177 89.7023 53.8101 92.4913V92.4908Z" fill="#FFFAF3"/>
<path d="M34.0652 108.049C32.2442 108.049 30.9539 107.623 30.8675 107.594C30.8318 107.582 30.7982 107.565 30.768 107.543C27.7875 105.42 26.159 102.86 25.928 99.935C25.8312 98.7074 25.851 94.3855 30.1443 90.1252C32.4862 83.4609 34.9749 79.7572 37.7513 78.8051C40.3512 77.9136 42.8146 79.5036 44.9888 80.9072C45.3127 81.1162 45.6339 81.3236 45.9524 81.521C49.4141 83.6715 50.1934 85.9282 50.3595 87.0144C51.333 86.6872 52.2537 87.2845 52.3005 87.3153C52.3626 87.3521 54.1589 88.4505 54.5835 90.189C54.7898 91.0322 54.6402 91.8742 54.1391 92.6921C52.5777 95.2419 49.4262 98.9538 47.8389 99.2057C46.784 99.3746 45.4293 98.5342 44.6912 97.9968C44.5262 98.7751 44.1588 100.025 43.4251 100.631C43.6385 101.595 43.7744 104.639 38.0791 107.293C38.0725 107.297 38.0659 107.3 38.0593 107.302C36.6277 107.873 35.2373 108.05 34.0663 108.05L34.0652 108.049ZM31.1651 106.881C31.5891 107.01 34.6119 107.845 37.7634 106.592C43.8211 103.764 42.6353 100.648 42.6227 100.618C42.549 100.437 42.6227 100.229 42.7943 100.135C43.5676 99.7117 43.9559 97.9105 44.04 97.2521C44.0582 97.1124 44.1511 96.9936 44.282 96.9425C44.4135 96.8913 44.5625 96.9161 44.6698 97.0074C45.2027 97.4578 46.7889 98.5947 47.7168 98.4467C48.8129 98.2729 51.7219 95.1665 53.4819 92.2917C53.8707 91.6564 53.9901 91.0118 53.8355 90.3766C53.489 88.951 51.9034 87.9764 51.8874 87.967C51.8385 87.9351 50.964 87.3785 50.2506 87.9401C50.1296 88.0352 49.9641 88.049 49.8288 87.9758C49.6935 87.9021 49.6154 87.7553 49.6297 87.6024C49.6319 87.5776 49.7958 84.8172 45.5454 82.1766C45.2231 81.977 44.898 81.7669 44.5702 81.5551C42.4445 80.1829 40.2461 78.7639 37.9999 79.5344C35.4501 80.4095 33.1077 83.9845 30.84 90.4651C30.8208 90.5207 30.7883 90.5713 30.7465 90.6125C27.4735 93.8289 26.5071 97.5068 26.6941 99.8762C26.9053 102.548 28.409 104.905 31.1645 106.883L31.1651 106.881Z" fill="#0C0C0C"/>
<path d="M125.34 67.0335C127.209 64.7989 127.305 61.5522 126.294 58.926C126.09 58.3144 125.765 57.6819 125.488 57.1055C125.282 56.6435 125.954 56.3201 126.184 56.7755C126.357 57.2094 126.532 57.6417 126.695 58.0768C126.961 58.9397 127.212 59.8489 127.278 60.7509C127.287 60.8614 127.318 61.154 127.327 61.2618C127.402 63.3337 126.808 65.5293 125.339 67.0341L125.34 67.0335Z" fill="#0C0C0C"/>
<path d="M31.601 101.325C30.2618 100.609 29.5622 99.0979 29.2817 97.6624L29.1667 96.9199C29.1596 96.6548 29.1068 96.0509 29.1134 95.7951C29.1299 95.4321 29.1409 95.0318 29.1618 94.6704C29.2267 94.237 29.2756 93.6084 29.3658 93.186C29.4632 92.7625 29.5633 92.1349 29.6815 91.7219L30.0847 90.2803C30.2321 89.7974 30.9509 89.9921 30.8266 90.4876C30.6534 91.0096 30.242 92.0843 30.1237 92.6035C30.0071 93.0215 29.8432 93.5924 29.7778 94.0137C29.6848 94.4355 29.5924 95.023 29.5605 95.4476C29.4967 95.8579 29.5094 96.4771 29.5028 96.8957L29.5671 97.6173C29.7497 99.0352 30.3382 100.542 31.6016 101.326L31.601 101.325Z" fill="#0C0C0C"/>
<path d="M119.991 67.7379C117.753 70.4714 114.173 69.0684 112.49 66.4878C111.919 65.5737 111.358 64.5259 111.679 63.3841L112.289 64.2009C110.311 64.1767 108.686 62.5575 108.236 60.7293C108.097 60.1435 108.085 59.5314 108.232 58.9731C108.428 60.9933 110.208 63.0156 112.25 62.9579C112.581 62.9331 112.869 63.1812 112.893 63.5117C112.901 63.6003 112.881 63.691 112.86 63.7746C112.82 64.4478 113.244 65.1617 113.607 65.7414C115.135 68.0074 117.423 69.2075 119.991 67.7374V67.7379Z" fill="#0C0C0C"/>
<path d="M37.1334 101.169C38.8148 101.824 40.4824 101.594 41.76 100.292C42.6109 99.4466 43.2819 98.318 43.5789 97.1536C43.6542 96.8346 43.7191 96.4161 43.5981 96.1537C43.4469 95.7852 43.7202 95.359 44.1157 95.3375C44.5551 95.3073 45.0061 95.1406 45.4225 94.8799C46.743 94.0043 47.5851 92.4973 47.5268 90.822C47.7523 91.3539 47.8271 91.9616 47.7726 92.5606C47.5873 94.4339 46.2084 96.2676 44.2543 96.5734L44.741 95.6785C45.2217 96.7626 44.8147 97.8802 44.3797 98.8658C43.0828 101.659 39.7338 103.557 37.1323 101.169L37.1334 101.169Z" fill="#0C0C0C"/>
<path d="M107.336 58.2148C106.192 57.9668 105.021 57.3772 104.494 56.2612C104.23 55.6771 105.076 55.2668 105.37 55.8377C105.455 56.0973 105.473 56.3608 105.624 56.622C106.002 57.3101 106.634 57.8265 107.337 58.2148H107.336Z" fill="#0C0C0C"/>
<path d="M48.6533 89.6451C49.2066 89.0659 49.4728 88.2706 49.5548 87.4907C49.6433 86.8505 50.5855 86.9561 50.5288 87.6007C50.4656 87.8845 50.2665 88.1221 50.1158 88.3625C49.7374 88.8943 49.2506 89.3783 48.6533 89.6451Z" fill="#0C0C0C"/>
<path d="M111.398 55.6148C112.353 53.9729 114.275 52.604 116.165 52.3345C115.432 53.0038 114.667 53.5357 113.873 54.1016C113.07 54.6511 112.289 55.1809 111.399 55.6148H111.398Z" fill="#0C0C0C"/>
<path d="M116.485 60.889C117.51 59.4139 119.29 58.0504 121.03 57.5686C120.415 58.3161 119.71 58.9139 118.948 59.4854C118.178 60.0436 117.393 60.5529 116.484 60.889H116.485Z" fill="#0C0C0C"/>
<path d="M121.03 66.7782C121.635 65.5418 122.938 64.5259 124.29 64.2559C123.907 64.8746 123.408 65.3317 122.856 65.77C122.294 66.1946 121.723 66.5615 121.03 66.7782Z" fill="#0C0C0C"/>
<path d="M37.0747 85.0328C38.9728 84.9761 41.1508 85.8853 42.3773 87.3472C41.4219 87.0782 40.5656 86.7092 39.6663 86.3341C38.7759 85.943 37.9135 85.5597 37.0747 85.0322V85.0328Z" fill="#0C0C0C"/>
<path d="M35.2822 92.1372C37.0818 92.2307 39.1691 93.0178 40.5023 94.2426C39.5425 94.1156 38.6625 93.8323 37.7748 93.4875C36.8937 93.1289 36.0473 92.7312 35.2822 92.1372Z" fill="#0C0C0C"/>
<path d="M32.6817 99.1066C34.0584 98.9691 35.5956 99.5345 36.5455 100.543C35.8178 100.544 35.1661 100.362 34.5022 100.125C33.845 99.8717 33.2323 99.5813 32.6812 99.1072L32.6817 99.1066Z" fill="#0C0C0C"/>
<path d="M88.1119 53.515C87.9782 53.515 87.8578 53.4215 87.8297 53.2851L87.387 51.1533C87.3545 50.9971 87.4546 50.8447 87.6108 50.8123C87.7665 50.7798 87.9194 50.8799 87.9518 51.0361L88.3946 53.1679C88.427 53.3241 88.3269 53.4765 88.1707 53.5089C88.1509 53.5128 88.1311 53.515 88.1119 53.515Z" fill="#0C0C0C"/>
<path d="M79.0544 52.4578C78.923 52.4578 78.8036 52.367 78.7734 52.2334L78.577 51.3721C78.5418 51.217 78.6386 51.0619 78.7943 51.0267C78.9494 50.9909 79.1045 51.0883 79.1397 51.2439L79.336 52.1052C79.3712 52.2603 79.2744 52.4154 79.1188 52.4506C79.0973 52.4556 79.0759 52.4578 79.0544 52.4578Z" fill="#0C0C0C"/>
<path d="M54.779 60.4565C54.6607 60.4565 54.5496 60.3833 54.5073 60.2656L54.1729 59.3383C54.119 59.1882 54.1965 59.0232 54.3467 58.9693C54.4968 58.9154 54.6618 58.9929 54.7157 59.1431L55.0499 60.0704C55.1038 60.2205 55.0263 60.3855 54.8763 60.4394C54.8439 60.451 54.8109 60.4565 54.7784 60.4565H54.779Z" fill="#0C0C0C"/>
<path d="M94.9422 85.0547C93.4489 85.3709 91.9656 85.9143 90.7825 86.8834C90.3843 87.1975 89.9058 86.6123 90.2941 86.2845C91.6895 85.4463 93.3433 85.1278 94.9422 85.0547Z" fill="#0C0C0C"/>
<path d="M69.7178 117.473C69.9444 117.078 70.1556 116.675 70.3162 116.255C70.3662 116.12 70.4102 115.984 70.4317 115.862C70.4691 115.646 70.6748 115.502 70.8909 115.539C71.1725 115.581 71.315 115.929 71.1494 116.157C70.76 116.695 70.2375 117.084 69.7178 117.473Z" fill="#0C0C0C"/>
<path d="M97.1709 84.8986C98.5173 84.7677 99.8681 84.7512 101.178 85.2539C101.376 85.3337 101.472 85.5592 101.392 85.7572C101.312 85.9552 101.087 86.0514 100.889 85.9717C99.7872 85.2787 98.4628 85.018 97.1709 84.8986Z" fill="#0C0C0C"/>
<path d="M68.4034 119.062C67.3925 120.047 66.0423 120.66 64.6458 120.859C64.1404 120.926 64.0232 120.187 64.5259 120.095C64.8768 120.088 65.2299 120.111 65.5847 120.062C66.5802 119.954 67.5652 119.62 68.4034 119.061V119.062Z" fill="#0C0C0C"/>
<path d="M84.2776 122.291C84.2776 126.182 82.1904 129.372 79.5454 129.641C79.4244 129.654 79.3029 129.66 79.1819 129.66C77.5297 129.66 76.0601 128.524 75.1289 126.76C75.6597 126.948 76.2064 127.133 76.7679 127.31C79.0493 126.669 82.7233 122.16 77.7068 119.117C77.7068 119.117 76.5314 118.935 74.9155 118.263C75.8214 116.249 77.3949 114.92 79.1819 114.92C81.9962 114.92 84.2776 118.222 84.2776 122.292V122.291Z" fill="#FFFAF3"/>
<path d="M79.1817 130.045C77.4316 130.045 75.8306 128.913 74.7883 126.939C74.7141 126.799 74.7339 126.628 74.8378 126.508C74.9412 126.388 75.109 126.344 75.258 126.397C75.7822 126.583 76.2772 126.75 76.7694 126.907C77.9107 126.523 79.5601 124.995 79.8021 123.226C79.9968 121.801 79.2246 120.508 77.5686 119.484C77.2727 119.43 76.1892 119.209 74.768 118.619C74.6717 118.579 74.5964 118.501 74.5579 118.405C74.5194 118.308 74.5221 118.201 74.5645 118.105C75.5699 115.87 77.2963 114.535 79.1817 114.535C82.2034 114.535 84.6619 118.015 84.6619 122.291C84.6619 126.337 82.4317 129.734 79.5843 130.023C79.4573 130.038 79.3242 130.045 79.1817 130.045ZM76.0308 127.476C76.891 128.631 78.0031 129.275 79.1817 129.275C79.2956 129.275 79.4006 129.27 79.5029 129.258C81.9658 129.008 83.893 125.947 83.893 122.291C83.893 118.439 81.7799 115.304 79.1823 115.304C77.7083 115.304 76.3305 116.326 75.4406 118.059C76.7986 118.582 77.7556 118.735 77.766 118.737C77.8155 118.745 77.8634 118.762 77.9063 118.788C80.4088 120.306 80.7333 122.096 80.5644 123.33C80.2828 125.391 78.4277 127.243 76.8717 127.68C76.7997 127.7 76.7232 127.699 76.6523 127.677C76.446 127.612 76.2398 127.545 76.0313 127.476H76.0308Z" fill="#0C0C0C"/>
<path d="M93.3144 120.879C95.5458 134.912 93.5817 135.593 90.9274 135.265C83.1851 134.134 79.8647 136.533 79.8647 136.533C80.0088 135.717 80.0666 134.761 80.0534 133.786C82.9794 133.794 87.9899 133.763 87.9899 133.763C87.9899 133.763 88.9749 132.096 88.3633 131.23C89.0442 130.428 88.5729 128.254 87.5823 127.309C88.0746 126.042 87.4459 124.69 86.0704 123.928C85.549 123.647 84.768 124.041 84.0178 124.619C84.1872 123.888 84.2774 123.105 84.2774 122.291C84.2774 118.221 81.996 114.92 79.1816 114.92C79.1816 114.92 87.5779 111.615 90.9269 111.581C91.9482 111.571 93.5256 113.987 94.8396 117.515C93.4085 115.98 92.5989 116.38 93.3144 120.879V120.879Z" fill="#FDD608"/>
<path d="M79.8652 136.918C79.7942 136.918 79.7233 136.898 79.6606 136.859C79.528 136.776 79.4587 136.62 79.4862 136.466C79.6193 135.713 79.6826 134.788 79.6688 133.791C79.6672 133.688 79.7073 133.589 79.7799 133.516C79.852 133.443 79.951 133.402 80.0533 133.402C80.0533 133.402 86.7468 133.386 87.7599 133.38C88.0085 132.887 88.3792 131.919 88.0486 131.452C87.9474 131.309 87.9557 131.115 88.0695 130.982C88.5535 130.411 88.2279 128.458 87.3166 127.589C87.2038 127.481 87.167 127.316 87.2236 127.171C87.6372 126.105 87.0988 124.938 85.8838 124.265C85.5956 124.11 84.9994 124.349 84.2525 124.924C84.1238 125.023 83.9467 125.031 83.8098 124.943C83.6734 124.855 83.6063 124.691 83.6431 124.532C83.8087 123.817 83.8928 123.063 83.8928 122.291C83.8928 118.439 81.7797 115.304 79.1821 115.304C78.9973 115.304 78.8383 115.173 78.8042 114.991C78.7696 114.81 78.8691 114.629 79.0413 114.562C79.3867 114.426 87.5426 111.23 90.9235 111.196C92.3755 111.188 94.0838 114.381 95.2003 117.381C95.2641 117.553 95.1981 117.746 95.0419 117.842C94.8857 117.938 94.6833 117.911 94.5584 117.777C93.888 117.058 93.6394 117.09 93.6377 117.09C93.6333 117.092 93.1477 117.379 93.6944 120.819C95.0386 129.273 94.9973 133.516 93.5558 135.01C92.8221 135.769 91.8365 135.765 90.88 135.647C83.3703 134.55 80.122 136.822 80.0901 136.845C80.023 136.893 79.9438 136.918 79.8646 136.918H79.8652ZM80.4399 134.172C80.4366 134.754 80.4069 135.309 80.353 135.819C81.7198 135.163 85.0979 134.025 90.9834 134.884C91.8761 134.994 92.53 134.965 93.003 134.475C94.224 133.21 94.2026 128.909 92.9354 120.939C92.3683 117.372 92.8023 116.642 93.3011 116.398C93.5211 116.291 93.751 116.3 93.9771 116.378C92.6301 113.186 91.4273 111.965 90.9345 111.965H90.9317C88.4617 111.99 83.0601 113.883 80.595 114.796C82.9347 115.679 84.6628 118.704 84.6628 122.29C84.6628 122.8 84.6287 123.303 84.5605 123.794C85.248 123.415 85.8063 123.348 86.2529 123.588C87.7373 124.411 88.4232 125.84 88.0217 127.21C89.0579 128.366 89.318 130.296 88.812 131.246C89.2724 132.291 88.4265 133.78 88.3209 133.958C88.2521 134.075 88.1273 134.146 87.992 134.147C87.9441 134.147 83.3687 134.175 80.4394 134.171L80.4399 134.172Z" fill="#0C0C0C"/>
<path d="M90.0702 143.34C84.6054 145.31 76.9159 141.638 79.865 136.533C79.865 136.533 83.1853 134.135 90.9277 135.265C93.582 135.593 95.546 134.911 93.3147 120.879C92.5991 116.38 93.4087 115.98 94.8398 117.515C97.8346 125.551 99.4692 139.357 90.0702 143.34Z" fill="#FFFAF3"/>
<path d="M86.8159 144.269C84.0791 144.269 81.3516 143.251 79.8716 141.482C78.6093 139.973 78.4889 138.147 79.5317 136.341C79.5586 136.294 79.5955 136.254 79.6395 136.222C79.7803 136.12 83.1754 133.745 90.9827 134.885C91.8753 134.995 92.5293 134.966 93.0023 134.476C94.2233 133.211 94.2018 128.91 92.9346 120.94C92.3676 117.373 92.8015 116.643 93.3004 116.399C93.9318 116.091 94.6418 116.739 95.1209 117.253C95.1555 117.29 95.1825 117.334 95.2001 117.381C97.8945 124.61 100.321 139.414 90.2193 143.695C90.2127 143.698 90.2061 143.701 90.1995 143.703C89.1325 144.087 87.9731 144.27 86.8153 144.27L86.8159 144.269ZM80.1543 136.803C79.101 138.694 79.7363 140.12 80.4623 140.988C82.3433 143.238 86.6767 144.15 89.93 142.982C94.9872 140.833 96.4139 135.78 96.7197 131.918C97.0558 127.674 96.2291 122.373 94.5076 117.722C93.8762 117.059 93.6408 117.09 93.6386 117.091C93.6342 117.093 93.1486 117.379 93.6953 120.819C95.0395 129.273 94.9982 133.517 93.5567 135.01C92.823 135.77 91.8374 135.766 90.8809 135.648C86.9688 135.076 84.243 135.434 82.6436 135.834C81.1888 136.198 80.3787 136.662 80.1543 136.804V136.803Z" fill="#0C0C0C"/>
<path d="M110.866 122.597C110.7 123.683 110.301 124.597 109.738 125.339C109.306 123.539 107.988 123.8 107.455 121.923C106.363 118.078 105.353 116.466 101.26 114.641C93.0575 111.658 86.3057 118.507 86.3057 118.507C83.6646 106.066 95.3829 102.199 95.3829 102.199L95.3851 102.197C95.5022 102.153 99.2477 100.743 103.689 103.674C104.899 105.071 105.964 106.477 107.08 108.041C107.08 108.041 108.021 112.005 107.615 114.92C107.778 117.011 108.817 121.398 110.866 122.597Z" fill="#FFFAF3"/>
<path d="M109.738 125.725C109.712 125.725 109.686 125.722 109.659 125.716C109.514 125.686 109.399 125.574 109.364 125.43C109.178 124.656 108.806 124.336 108.376 123.965C107.899 123.554 107.359 123.087 107.082 122.02C105.946 118.356 105.135 116.793 101.115 114.998C93.2523 112.148 86.6446 118.711 86.5786 118.777C86.479 118.878 86.3327 118.916 86.1969 118.876C86.061 118.837 85.9582 118.726 85.9285 118.587C84.5276 111.988 87.144 107.78 89.5854 105.411C92.111 102.961 94.9017 101.957 95.2334 101.844C95.2383 101.841 95.2438 101.839 95.2488 101.837C95.6629 101.681 99.4227 100.398 103.9 103.354C103.929 103.373 103.956 103.396 103.979 103.423C105.069 104.681 106.122 106.037 107.393 107.818C107.422 107.859 107.442 107.905 107.454 107.953C107.493 108.117 108.398 111.984 108.001 114.931C108.195 117.296 109.293 121.232 111.059 122.266C111.195 122.345 111.269 122.5 111.245 122.656C111.077 123.76 110.672 124.742 110.044 125.573C109.97 125.67 109.856 125.725 109.737 125.725L109.738 125.725ZM97.0643 113.511C98.441 113.511 99.8924 113.735 101.39 114.28C101.399 114.283 101.407 114.286 101.415 114.29C105.698 116.2 106.656 118.048 107.822 121.81C108.043 122.662 108.43 122.996 108.878 123.382C109.206 123.665 109.565 123.974 109.833 124.49C110.12 123.973 110.324 123.402 110.443 122.782C109.336 121.996 108.601 120.434 108.17 119.222C107.598 117.613 107.31 115.96 107.231 114.951C107.229 114.923 107.23 114.895 107.234 114.868C107.595 112.272 106.844 108.749 106.722 108.203C105.5 106.491 104.482 105.18 103.433 103.968C99.3397 101.291 95.8703 102.433 95.5408 102.551C95.5287 102.556 95.5161 102.561 95.5034 102.566C95.4748 102.575 92.6066 103.545 90.1013 105.984C86.9174 109.086 85.725 113.046 86.5527 117.763C87.9431 116.564 91.9823 113.512 97.0649 113.512L97.0643 113.511Z" fill="#0C0C0C"/>
<path d="M110.865 110.929C110.865 110.929 109.493 108.443 107.079 108.041C105.964 106.477 104.898 105.071 103.688 103.675C103.688 103.675 104.292 102.861 106.572 103.178C111.765 106.075 111.546 108.267 110.865 110.929Z" fill="#FFFAF3"/>
<path d="M110.865 111.313C110.726 111.313 110.597 111.239 110.528 111.115C110.516 111.092 109.212 108.787 107.016 108.421C106.915 108.404 106.825 108.348 106.766 108.265C105.51 106.504 104.471 105.166 103.397 103.927C103.279 103.791 103.272 103.59 103.379 103.446C103.455 103.344 104.19 102.459 106.625 102.798C106.672 102.804 106.717 102.82 106.759 102.843C112.086 105.815 111.958 108.206 111.237 111.024C111.198 111.177 111.07 111.29 110.913 111.311C110.897 111.313 110.881 111.314 110.864 111.314L110.865 111.313ZM107.302 107.692C108.931 108.024 110.084 109.201 110.696 109.994C111.116 108.037 110.969 106.09 106.447 103.551C105.235 103.392 104.573 103.58 104.25 103.739C105.219 104.88 106.176 106.119 107.302 107.692L107.302 107.692Z" fill="#0C0C0C"/>
<path d="M109.737 125.34C108.666 126.752 107.006 127.547 105.252 127.731C97.798 129.118 95.757 125.578 93.8199 123.347C91.885 121.116 86.3047 118.507 86.3047 118.507C86.3047 118.507 93.0565 111.658 101.259 114.641C105.352 116.466 106.362 118.078 107.454 121.923C107.987 123.8 109.305 123.539 109.737 125.34V125.34Z" fill="#0C0C0C"/>
<path d="M102.16 128.425C97.5297 128.425 95.5717 126.058 94.0741 124.247C93.8887 124.023 93.7089 123.805 93.5301 123.599C91.6711 121.455 86.1975 118.881 86.1425 118.856C86.0292 118.803 85.9489 118.698 85.9269 118.575C85.9049 118.452 85.944 118.326 86.0314 118.237C86.1007 118.166 93.0527 111.246 101.391 114.279C101.399 114.282 101.408 114.286 101.416 114.289C105.699 116.2 106.657 118.048 107.822 121.81C108.044 122.662 108.43 122.995 108.878 123.381C109.343 123.782 109.868 124.235 110.113 125.25C110.14 125.362 110.115 125.48 110.045 125.572C108.963 126.999 107.281 127.9 105.308 128.112C104.139 128.329 103.095 128.426 102.16 128.426L102.16 128.425ZM86.9818 118.406C88.4256 119.116 92.4741 121.207 94.1109 123.094C94.2935 123.305 94.4778 123.527 94.667 123.756C96.4402 125.9 98.6473 128.568 105.182 127.352C105.192 127.35 105.202 127.349 105.212 127.348C106.908 127.169 108.358 126.427 109.316 125.253C109.119 124.604 108.772 124.305 108.376 123.964C107.899 123.553 107.359 123.087 107.082 122.019C105.946 118.356 105.135 116.792 101.115 114.997C94.3606 112.549 88.5328 117.047 86.9818 118.406Z" fill="#0C0C0C"/>
<path d="M110.865 122.597C108.816 121.398 107.778 117.011 107.614 114.92C108.02 112.005 107.08 108.041 107.08 108.041C109.494 108.443 110.865 110.929 110.865 110.929C112.685 114.591 112.025 119.275 110.865 122.597Z" fill="#FDD608"/>
<path d="M110.865 122.982C110.798 122.982 110.731 122.964 110.671 122.929C108.441 121.624 107.39 116.99 107.231 114.95C107.229 114.922 107.23 114.894 107.234 114.867C107.625 112.06 106.715 108.169 106.706 108.13C106.676 108.005 106.711 107.873 106.799 107.778C106.887 107.684 107.016 107.641 107.143 107.662C109.711 108.09 111.143 110.635 111.202 110.743C113.497 115.361 111.803 121.081 111.229 122.724C111.191 122.833 111.106 122.919 110.998 122.958C110.956 122.974 110.91 122.982 110.865 122.982V122.982ZM108.001 114.931C108.18 117.114 109.131 120.637 110.666 121.978C111.304 119.962 112.488 115.059 110.521 111.1C110.517 111.093 109.436 109.182 107.585 108.563C107.832 109.795 108.309 112.641 108.001 114.931Z" fill="#0C0C0C"/>
<path d="M88.363 131.23C88.9746 132.096 87.9896 133.763 87.9896 133.763C87.9896 133.763 82.9785 133.794 80.0531 133.786C80.0338 132.296 79.8474 130.766 79.5454 129.641C81.6382 129.428 83.3811 127.389 84.0175 124.618C84.7677 124.042 85.5487 123.647 86.0701 123.928C87.4456 124.689 88.0743 126.042 87.582 127.309C88.5726 128.253 89.0439 130.427 88.363 131.229V131.23Z" fill="#FFFAF3"/>
<path d="M81.0878 134.172L80.0527 134.171C79.8426 134.17 79.6715 134.002 79.6688 133.791C79.6501 132.339 79.4653 130.825 79.1738 129.741C79.1446 129.632 79.1644 129.516 79.2288 129.423C79.2926 129.33 79.3943 129.27 79.5065 129.258C81.404 129.065 83.0276 127.21 83.6431 124.532C83.6629 124.445 83.7124 124.368 83.7833 124.314C84.8404 123.501 85.6484 123.264 86.2528 123.589C87.7373 124.412 88.4231 125.841 88.0216 127.211C89.0578 128.367 89.318 130.297 88.812 131.247C89.2723 132.292 88.4264 133.781 88.3208 133.959C88.2521 134.076 88.1272 134.147 87.9919 134.148C87.9474 134.148 83.9973 134.173 81.0872 134.173L81.0878 134.172ZM80.43 133.402C82.9825 133.406 86.7957 133.385 87.7604 133.379C88.009 132.886 88.3797 131.919 88.0491 131.452C87.9479 131.308 87.9562 131.115 88.07 130.981C88.554 130.411 88.2284 128.458 87.3171 127.588C87.2043 127.48 87.1675 127.316 87.2241 127.17C87.6377 126.105 87.0993 124.937 85.8843 124.264C85.6099 124.116 85.0571 124.326 84.3608 124.842C83.6931 127.576 82.025 129.525 80.0202 129.955C80.2474 130.953 80.3926 132.171 80.4305 133.402H80.43Z" fill="#0C0C0C"/>
<path d="M80.0534 134.027C79.967 134.027 79.884 133.98 79.8405 133.899C79.7784 133.781 79.8229 133.636 79.9406 133.574C80.1452 133.465 84.9891 130.921 88.3677 130.989C88.5003 130.992 88.6059 131.102 88.6031 131.234C88.6004 131.367 88.4893 131.471 88.3578 131.47C85.1079 131.399 80.2145 133.972 80.1656 133.998C80.1298 134.017 80.0913 134.026 80.0534 134.026V134.027Z" fill="#0C0C0C"/>
<path d="M79.9962 132.748C79.9308 132.748 79.8653 132.722 79.818 132.669C79.7289 132.57 79.7366 132.419 79.8345 132.329C79.8703 132.296 83.4557 129.067 87.4757 127.093C87.595 127.035 87.7391 127.084 87.7974 127.203C87.8557 127.323 87.8068 127.467 87.6874 127.525C83.7296 129.468 80.1926 132.653 80.1574 132.685C80.1112 132.727 80.0534 132.747 79.9962 132.747V132.748Z" fill="#0C0C0C"/>
<path d="M109.131 115.527C109.115 115.527 109.1 115.526 109.084 115.524C108.873 115.499 108.723 115.308 108.748 115.096C108.752 115.057 109.15 111.416 106.773 108.273C106.645 108.104 106.678 107.862 106.847 107.734C107.017 107.606 107.258 107.64 107.386 107.809C109.958 111.209 109.531 115.028 109.512 115.188C109.488 115.384 109.322 115.527 109.13 115.527H109.131Z" fill="#0C0C0C"/>
<path d="M54.7628 31.0132C48.4823 29.4622 45.1449 37.055 45.1449 37.055C44.9678 30.2179 51.8703 18.4947 54.7628 31.0132Z" fill="#0C0C0C"/>
<path d="M45.1448 37.4399C45.1201 37.4399 45.0953 37.4377 45.07 37.4328C44.8935 37.3981 44.7642 37.2452 44.7598 37.0654C44.6394 32.4091 47.6759 25.5236 50.8302 25.1227C53.2117 24.8202 54.4866 28.1119 55.137 30.9274C55.1672 31.0577 55.1276 31.1941 55.0319 31.2882C54.937 31.3822 54.8001 31.4196 54.6697 31.3877C48.7809 29.933 45.5282 37.1385 45.4963 37.2111C45.4341 37.3525 45.2944 37.4405 45.1443 37.4405L45.1448 37.4399ZM51.1145 25.8734C51.0524 25.8734 50.9902 25.8773 50.9275 25.8855C48.7198 26.166 46.0897 31.1182 45.6046 35.4335C46.9312 33.3342 49.8627 29.8004 54.2446 30.5149C53.468 27.5036 52.3691 25.874 51.1145 25.874V25.8734Z" fill="#0C0C0C"/>
<path d="M81.7063 26.2337C80.3621 24.3087 73.9936 21.5351 69.7339 25.5407C70.5803 10.5274 80.5969 23.2819 81.7063 26.2337Z" fill="#0C0C0C"/>
<path d="M81.7065 26.6188C81.5844 26.6188 81.4651 26.5605 81.3908 26.4544C80.6797 25.4358 78.3972 24.179 75.9502 23.9255C74.3327 23.7577 71.9875 23.9508 69.9981 25.8213C69.8832 25.9291 69.7149 25.9561 69.5719 25.8895C69.4289 25.823 69.3414 25.6761 69.3502 25.5194C69.6131 20.8581 70.7978 18.3342 72.8719 18.0174C76.5085 17.4619 81.3688 24.2417 82.0668 26.0985C82.135 26.28 82.0569 26.4841 81.8853 26.5743C81.8286 26.604 81.767 26.6188 81.7065 26.6188ZM73.3163 18.7533C73.2046 18.7533 73.0952 18.7615 72.9879 18.7775C71.4683 19.0096 70.5047 21.0385 70.1829 24.6619C72.2108 23.1489 74.441 22.9949 76.0283 23.1593C77.3962 23.3012 79.0566 23.821 80.3447 24.5767C78.7178 22.1512 75.618 18.7522 73.3157 18.7522L73.3163 18.7533Z" fill="#0C0C0C"/>
<path d="M82.0972 142.618C81.6797 142.618 81.4366 142.6 81.424 142.599C81.2914 142.588 81.193 142.473 81.204 142.34C81.2144 142.207 81.3316 142.108 81.463 142.12C81.5323 142.125 88.4651 142.627 92.9861 137.921C93.0779 137.826 93.2303 137.822 93.326 137.915C93.4217 138.007 93.425 138.159 93.3326 138.255C89.4947 142.249 83.9947 142.618 82.0972 142.618V142.618Z" fill="#0C0C0C"/>
<path d="M105.325 112.856C105.259 112.856 105.194 112.829 105.146 112.776C105.105 112.73 100.944 108.158 95.4029 107.946C92.2712 107.825 89.2781 109.107 86.5116 111.754C86.4154 111.846 86.2636 111.843 86.1717 111.746C86.0799 111.65 86.0832 111.498 86.1794 111.406C89.0449 108.665 92.1552 107.339 95.4255 107.465C101.172 107.687 105.462 112.407 105.505 112.455C105.593 112.554 105.585 112.705 105.486 112.794C105.44 112.835 105.383 112.856 105.325 112.856Z" fill="#0C0C0C"/>
<path d="M90.5684 82.039C90.5684 82.039 91.5347 73.9931 96.2141 73.1571C98.6446 72.7226 100.861 74.7488 102.498 77.0098C102.498 77.0098 98.215 71.5742 94.2622 74.8951C92.3999 76.4598 91.2289 79.8863 90.5689 82.0396L90.5684 82.039Z" fill="#FFFAF3"/>
<path d="M60.6565 93.2949C60.6565 93.2949 55.5245 106.317 61.1719 116.261C61.1719 116.261 57.1558 106.5 60.6565 93.2949Z" fill="#FFFAF3"/>
<path d="M59.3237 89.425C59.3237 89.425 43.2985 109.621 35.8741 109.965C33.6053 110.068 32.2771 108.085 31.6006 107.324C31.6006 107.324 32.9723 110.948 36.8696 110.233C39.6691 109.72 50.6691 102.89 59.3232 89.4256L59.3237 89.425Z" fill="#FFFAF3"/>
<path d="M102.058 75.1079C102.058 75.1079 109.323 80.3318 122.349 80.2493C132.232 80.1872 134.488 77.5637 135.341 75.312C135.341 75.312 135.546 77.6082 132.453 79.0921C129.36 80.576 118.161 83.1082 103.505 76.836C103.215 76.7123 102.058 75.1079 102.058 75.1079Z" fill="#FFFAF3"/>
</svg>
