<svg width="165" height="166" viewBox="0 0 165 166" fill="none" xmlns="http://www.w3.org/2000/svg">
<path d="M83.4924 148.268C115.011 148.268 140.562 145.558 140.562 142.215C140.562 138.872 115.011 136.162 83.4924 136.162C51.9738 136.162 26.4229 138.872 26.4229 142.215C26.4229 145.558 51.9738 148.268 83.4924 148.268Z" fill="#B1CDF6"/>
<path d="M83.493 148.65C68.2365 148.65 53.891 148.019 43.0989 146.875C37.8403 146.317 33.7076 145.667 30.8163 144.941C27.5603 144.125 26.0439 143.259 26.0439 142.215C26.0439 141.171 27.5603 140.305 30.8163 139.489C33.7076 138.764 37.8403 138.113 43.0989 137.555C53.8904 136.411 68.236 135.78 83.493 135.78C98.75 135.78 113.095 136.411 123.887 137.555C129.146 138.113 133.278 138.763 136.17 139.489C139.426 140.305 140.942 141.171 140.942 142.215C140.942 143.259 139.426 144.125 136.17 144.941C133.278 145.666 129.146 146.317 123.887 146.875C113.095 148.019 98.75 148.65 83.493 148.65ZM83.493 136.544C68.2618 136.544 53.9449 137.172 43.1786 138.315C31.0918 139.597 26.8029 141.217 26.8029 142.215C26.8029 143.213 31.0918 144.833 43.1786 146.115C53.9449 147.258 68.2624 147.886 83.493 147.886C98.7236 147.886 113.041 147.258 123.807 146.115C135.894 144.833 140.183 143.213 140.183 142.215C140.183 141.217 135.894 139.597 123.807 138.315C113.041 137.172 98.7241 136.544 83.493 136.544Z" fill="#B1CDF6"/>
<path d="M104.614 123.671C104.614 123.671 101.575 118.953 107.261 119.272C107.261 119.272 102.999 108.831 116.619 108.556C123.776 108.411 126.518 114.681 122.44 120.046C122.44 120.046 130.263 116.911 128.679 124.229C131.929 123.791 150.432 127.749 141.522 127.512C109.83 126.67 84.9663 128.647 92.5134 125.95C100.06 123.254 104.614 123.671 104.614 123.671H104.614Z" fill="#B1CDF6"/>
<path d="M101.618 89.5659C101.618 89.5659 98.3465 82.6769 104.466 83.1417C104.466 83.1417 99.8799 67.894 114.538 67.4928C122.241 67.282 125.191 76.4375 120.802 84.2727C120.802 84.2727 129.222 79.6949 127.517 90.3809C131.015 89.7407 150.928 95.5208 141.338 95.175C107.232 93.9444 80.4737 96.8317 88.5955 92.8942C96.7179 88.9566 101.618 89.5653 101.618 89.5653L101.618 89.5659Z" fill="#B1CDF6"/>
<path d="M67.2535 118.526C67.2535 118.526 70.7086 111.091 60.3296 112.711C61.8547 109.51 63.8364 104.539 56.16 100.85C49.5502 97.6966 45.4984 104.376 45.4984 104.376C45.4984 104.376 32.2973 98.5947 37.7236 114.311C33.3918 114.862 32.1625 118.109 32.1625 118.109C32.1625 118.109 11.7493 121.744 26.294 122.668C40.8382 123.592 90.7413 124.667 83.0803 120.773C79.3794 119.524 67.2541 118.526 67.2541 118.526H67.2535Z" fill="#B1CDF6"/>
<path d="M38.8818 117.866C38.8554 117.866 38.8285 117.863 38.8015 117.858C38.5964 117.813 38.466 117.61 38.51 117.405C38.5166 117.373 39.1997 114.365 42.6867 114.189C42.9111 113.036 43.9589 109.29 48.1092 109.17C48.322 109.164 48.4931 109.33 48.4991 109.541C48.5052 109.752 48.3402 109.927 48.1306 109.933C46.3701 109.984 45.0407 110.772 44.1789 112.275C43.5178 113.428 43.388 114.591 43.3869 114.602C43.3665 114.797 43.2037 114.944 43.0096 114.944C39.8476 114.944 39.2575 117.538 39.2514 117.564C39.2129 117.744 39.0556 117.866 38.8807 117.866H38.8818Z" fill="#0C0C0C"/>
<path d="M116.249 117.445C116.039 117.445 115.869 117.274 115.869 117.063C115.869 116.447 115.689 115.958 115.334 115.609C114.647 114.936 113.511 114.958 113.498 114.957C113.284 114.963 113.115 114.797 113.109 114.587C113.103 114.376 113.267 114.201 113.476 114.194C113.535 114.192 114.937 114.159 115.858 115.058C116.369 115.556 116.628 116.231 116.628 117.063C116.628 117.274 116.458 117.445 116.248 117.445H116.249Z" fill="#0C0C0C"/>
<path d="M122.229 123.733H119.135C118.925 123.733 118.755 123.562 118.755 123.351C118.755 122.739 118.592 122.289 118.268 122.015C117.712 121.544 116.83 121.69 116.821 121.691C116.614 121.727 116.419 121.588 116.383 121.381C116.346 121.174 116.483 120.976 116.689 120.939C116.739 120.93 117.921 120.727 118.753 121.427C119.18 121.786 119.429 122.304 119.496 122.97H122.229C122.439 122.97 122.609 123.141 122.609 123.351C122.609 123.562 122.439 123.733 122.229 123.733H122.229Z" fill="#0C0C0C"/>
<path d="M122.873 89.6411H119.892C119.683 89.6411 119.513 89.4701 119.513 89.2593C119.513 88.2898 119.291 87.6197 118.853 87.2684C118.351 86.865 117.692 87.0089 117.686 87.01C117.482 87.0565 117.279 86.9286 117.231 86.7245C117.184 86.5203 117.308 86.3161 117.511 86.2668C117.552 86.2569 118.522 86.0328 119.317 86.6641C119.882 87.1123 120.198 87.856 120.26 88.8775H122.872C123.082 88.8775 123.252 89.0485 123.252 89.2593C123.252 89.4701 123.082 89.6411 122.872 89.6411H122.873Z" fill="#0C0C0C"/>
<path d="M109.071 79.8168C108.861 79.8168 108.691 79.6458 108.691 79.435C108.691 77.9565 109.134 76.8968 110.008 76.286C111.641 75.1444 114.139 76.0585 114.245 76.0984C114.441 76.172 114.541 76.3917 114.468 76.5892C114.395 76.7867 114.177 76.8874 113.981 76.8144C113.959 76.8061 111.744 75.9993 110.439 76.9146C109.783 77.3744 109.45 78.2226 109.45 79.4355C109.45 79.6464 109.28 79.8173 109.071 79.8173V79.8168Z" fill="#0C0C0C"/>
<path d="M79.1789 93.3209C76.0527 95.4296 70.5439 99.1303 64.5209 103.123C52.5622 113.12 54.9619 118.626 57.4204 120.933C58.1376 121.607 58.8603 122.008 59.2321 122.168C60.1011 126.363 54.1099 128.335 50.261 127.102C50.1851 127.079 50.1092 127.054 50.0355 127.028C46.1542 125.644 43.9668 119.573 48.5747 110.362C51.9627 103.587 65.0522 96.1384 71.7413 92.6746C73.8714 93.1062 76.0758 93.333 78.3314 93.333C78.6141 93.333 78.8968 93.3292 79.1795 93.3214L79.1789 93.3209Z" fill="#0C0C0C"/>
<path d="M52.7166 127.844C51.8267 127.844 50.9472 127.722 50.1464 127.465C50.07 127.442 49.9875 127.416 49.9072 127.386C48.2979 126.812 47.0114 125.498 46.2876 123.684C44.9132 120.242 45.6051 115.449 48.2357 110.19C49.6905 107.281 54.6564 101.092 71.5672 92.3342C71.6437 92.2943 71.7317 92.2822 71.8158 92.2993C74.221 92.7862 76.6998 93.0059 79.1688 92.939C79.3371 92.9356 79.4888 93.0424 79.5405 93.2046C79.5922 93.3667 79.5306 93.5432 79.3904 93.6378C77.1948 95.1191 71.3752 99.0361 64.7472 103.43C58.9084 108.314 55.8961 112.611 55.7938 116.202C55.7322 118.361 56.7848 119.815 57.6791 120.654C58.4827 121.409 59.2384 121.755 59.3814 121.817C59.4953 121.867 59.5783 121.968 59.6036 122.09C59.9105 123.572 59.4595 124.912 58.2996 125.965C56.9801 127.162 54.8198 127.844 52.7166 127.844ZM71.7971 93.074C54.5503 102.023 50.0491 108.262 48.9139 110.533C45.4978 117.361 46.2436 121.525 46.9922 123.399C47.6335 125.006 48.7599 126.167 50.1624 126.667C50.2317 126.692 50.301 126.714 50.3703 126.735C52.8376 127.526 56.0946 126.937 57.7908 125.397C58.7038 124.569 59.0745 123.572 58.8941 122.431C58.5432 122.258 57.8706 121.878 57.1611 121.212C56.1524 120.265 54.965 118.624 55.0348 116.179C55.1437 112.357 58.2539 107.865 64.278 102.829C64.289 102.82 64.3001 102.812 64.3116 102.804C70.0712 98.9858 75.2225 95.5264 77.9175 93.7109C75.86 93.6854 73.8035 93.4718 71.7966 93.0734L71.7971 93.074Z" fill="#0C0C0C"/>
<path d="M111.542 59.9177C111.542 72.9415 104.136 84.2246 93.3289 89.7363C91.7735 90.532 90.1477 91.206 88.4631 91.7477H88.4614C85.5228 92.6944 82.4098 93.24 79.1791 93.3203C78.8964 93.328 78.6137 93.3319 78.331 93.3319C76.0754 93.3319 73.871 93.105 71.7409 92.6734C69.7207 92.265 67.7649 91.6713 65.8944 90.9116C63.7884 90.0545 61.7892 88.9877 59.9225 87.7338C50.9971 81.7451 45.1182 71.5211 45.1182 59.9172C45.1182 41.4634 59.9868 26.5029 78.331 26.5029C96.6751 26.5029 111.542 41.464 111.542 59.9172V59.9177Z" fill="#F0C0EB"/>
<path d="M78.331 93.7136C76.0909 93.7136 73.8485 93.4895 71.6661 93.0474C69.6498 92.6396 67.6599 92.0403 65.7525 91.2656C63.6389 90.4058 61.6066 89.324 59.7119 88.0513C50.3361 81.7605 44.7388 71.2427 44.7388 59.9171C44.7388 41.2819 59.8081 26.1211 78.331 26.1211C96.8539 26.1211 111.922 41.2819 111.922 59.9171C111.922 66.281 110.154 72.4811 106.81 77.8462C103.557 83.0658 98.9544 87.2949 93.5006 90.076C91.9248 90.8822 90.2688 91.5672 88.5786 92.1106C88.572 92.1128 88.5649 92.115 88.5583 92.1167C85.5338 93.0889 82.3812 93.6223 79.1885 93.7014C78.903 93.7092 78.617 93.713 78.331 93.713V93.7136ZM78.331 26.8847C60.2267 26.8847 45.4972 41.703 45.4972 59.9176C45.4972 70.9876 50.9686 81.2675 60.1326 87.4166C61.9845 88.6605 63.9711 89.7174 66.0363 90.5579C67.9003 91.3149 69.8445 91.9009 71.8157 92.2993C74.2214 92.7862 76.6997 93.0059 79.1687 92.9389C82.2971 92.8615 85.3837 92.3386 88.3454 91.3846C88.352 91.3824 88.3592 91.3802 88.3658 91.3785C90.0108 90.8484 91.6223 90.1811 93.1568 89.3959C98.488 86.6768 102.986 82.5429 106.167 77.4412C109.435 72.1978 111.163 66.1382 111.163 59.9176C111.163 41.7035 96.4343 26.8847 78.331 26.8847Z" fill="#0C0C0C"/>
<path d="M111.002 123.972C102.809 126.634 102.429 121.384 102.56 119.25C102.602 118.616 102.624 117.994 102.628 117.384C102.742 103.217 93.1109 94.9221 88.4629 91.7482C90.1475 91.2059 91.7733 90.5325 93.3287 89.7368C96.0133 91.4848 99.7181 94.0866 101.617 96.2562C109.7 105.843 112.303 112.65 112.75 117.124C113.185 121.475 111.584 123.622 111.002 123.972V123.972Z" fill="#0C0C0C"/>
<path d="M107.051 125.088C105.751 125.088 104.694 124.774 103.891 124.147C102.304 122.909 102.085 120.788 102.181 119.227C102.222 118.601 102.245 117.981 102.249 117.381C102.298 111.303 100.539 105.679 97.021 100.664C94.1181 96.5245 90.6487 93.7025 88.2502 92.0646C88.1303 91.9827 88.067 91.8389 88.0879 91.6945C88.1088 91.55 88.2095 91.43 88.3481 91.3857C89.9992 90.8545 91.6173 90.1855 93.1573 89.3976C93.2777 89.3356 93.4218 89.3433 93.5357 89.4175C96.2956 91.2153 99.9877 93.817 101.902 96.0049C106.624 101.605 112.4 109.802 113.128 117.087C113.56 121.403 112.012 123.811 111.196 124.301C111.172 124.316 111.146 124.327 111.119 124.336C109.573 124.839 108.215 125.09 107.051 125.09L107.051 125.088ZM89.3018 91.8693C91.7064 93.5891 94.9162 96.3375 97.6414 100.223C101.252 105.372 103.058 111.146 103.008 117.386C103.004 118 102.981 118.636 102.938 119.275C102.854 120.651 103.031 122.51 104.356 123.544C105.66 124.563 107.842 124.589 110.839 123.623C111.417 123.228 112.764 121.078 112.373 117.162C111.664 110.072 105.975 102.014 101.328 96.5029C99.5158 94.4324 96.003 91.9418 93.3052 90.1761C92.0144 90.8257 90.6713 91.3934 89.3018 91.8699V91.8693Z" fill="#0C0C0C"/>
<path d="M55.5732 52.3292C55.5732 52.3292 56.467 35.3507 66.0766 35.6921C70.1845 36.1962 71.1008 53.2682 71.1008 53.2682L55.5732 52.3292Z" fill="#FFFAF3"/>
<path d="M71.1009 53.6499C71.0932 53.6499 71.0855 53.6499 71.0783 53.6494L55.5507 52.7104C55.3428 52.6976 55.1839 52.5184 55.1949 52.3092C55.1971 52.266 55.4374 47.9633 56.8625 43.7596C58.7858 38.0863 61.9747 35.1625 66.0904 35.3108C66.1014 35.3108 66.1118 35.3119 66.1228 35.3136C70.4222 35.8414 71.3841 51.4676 71.4798 53.2476C71.4859 53.3561 71.4452 53.4623 71.3682 53.5387C71.2967 53.6101 71.201 53.6499 71.1009 53.6499ZM55.9803 51.9717L70.6955 52.8614C70.6163 51.6751 70.3507 48.2024 69.7545 44.7285C68.5115 37.4826 66.9038 36.1911 66.0464 36.0733C65.9628 36.0705 65.8808 36.0694 65.7983 36.0694C57.6836 36.0694 56.1849 49.5254 55.9803 51.9717Z" fill="#0C0C0C"/>
<path d="M76.939 53.2682C76.939 53.2682 78.0945 34.6873 86.0646 35.6871C90.6675 36.2643 94.8365 46.1723 95.0923 53.883C89.3607 54.2675 76.9395 53.2682 76.9395 53.2682H76.939Z" fill="#FFFAF3"/>
<path d="M91.9036 54.3518C85.7309 54.3518 77.014 53.6568 76.9095 53.6485C76.7032 53.6319 76.5481 53.4521 76.5613 53.2446C76.5635 53.2136 76.7632 50.0756 77.5376 46.4911C78.587 41.6329 80.1369 38.3018 82.1455 36.5909C83.323 35.5877 84.6557 35.1555 86.1049 35.3071C90.9834 36.0209 95.2129 46.0451 95.4725 53.8698C95.4791 54.0757 95.3229 54.25 95.1183 54.2632C94.196 54.3252 93.0971 54.3512 91.9041 54.3512L91.9036 54.3518ZM77.3473 52.917C79.4191 53.0752 89.494 53.8073 94.6981 53.5245C94.5188 49.8797 93.4689 45.717 91.8618 42.309C90.1271 38.631 87.9947 36.3552 86.0103 36.0647C84.7899 35.9374 83.6492 36.3098 82.6355 37.173C78.5771 40.6302 77.5222 50.8287 77.3473 52.9164V52.917Z" fill="#0C0C0C"/>
<path d="M61.7848 58.7578C66.6056 61.4802 68.7418 66.7789 84.9651 59.0699C89.2375 57.0397 97.0129 60.9296 88.7095 69.7459C84.7116 73.6734 65.796 79.0734 57.1571 64.9413C55.2503 61.8222 57.3331 56.2435 61.7848 58.7578Z" fill="#FFFAF3"/>
<path d="M74.386 74.5025C73.3855 74.5025 72.3438 74.4455 71.2735 74.3122C65.0189 73.5347 60.026 70.3636 56.8338 65.1418C55.6508 63.2068 55.8851 60.2807 57.3448 58.7524C58.5036 57.539 60.1899 57.42 61.9703 58.426C62.7551 58.8692 63.4707 59.3749 64.1631 59.8635C67.8124 62.4409 71.2598 64.8756 84.809 58.7231C87.2037 57.5334 90.4696 58.2068 91.9299 60.1983C92.7351 61.2972 92.9562 62.6982 92.569 64.2515C92.129 66.0149 90.9234 67.9521 88.9857 70.0094C87.6712 71.3015 85.0873 72.5747 82.064 73.4252C80.1703 73.958 77.477 74.5031 74.3865 74.5031L74.386 74.5025ZM59.6713 58.5112C58.9876 58.5112 58.3821 58.7685 57.8926 59.2809C56.6529 60.5784 56.4642 63.0795 57.4806 64.7417C59.6196 68.2404 63.7644 72.6096 71.367 73.5547C78.7535 74.4726 86.1538 71.7242 88.4451 69.4733C91.7797 65.9325 92.8308 62.7132 91.3194 60.6509C90.0637 58.9383 87.2312 58.3712 85.1335 59.4131C71.1784 65.7499 67.3905 63.0751 63.7275 60.4877C63.051 60.0096 62.3514 59.516 61.5996 59.0911C60.9143 58.7043 60.2636 58.5112 59.6713 58.5112Z" fill="#0C0C0C"/>
<path d="M96.5181 117.152C93.7884 120.826 88.5068 119.28 82.7114 115.559C82.7609 115.536 82.8082 115.515 82.8555 115.492C85.5153 114.177 86.0158 108.527 86.0158 108.527L90.0468 109.453C95.093 106.751 98.3369 78.1113 101.617 78.9092C108.602 80.6079 99.2472 113.478 96.5175 117.152H96.5181Z" fill="#0C0C0C"/>
<path d="M92.1839 119.643C89.6457 119.643 86.4123 118.388 82.5073 115.881C82.3901 115.806 82.3236 115.672 82.3329 115.533C82.3423 115.394 82.4264 115.271 82.5524 115.212C82.5524 115.212 82.6635 115.161 82.6915 115.148C85.1253 113.945 85.6335 108.549 85.6384 108.494C85.6483 108.385 85.705 108.285 85.7935 108.22C85.8821 108.155 85.9943 108.132 86.101 108.156L89.9867 109.048C92.4573 107.488 94.6634 98.6439 96.4415 91.5153C98.5832 82.9303 99.8856 78.0953 101.707 78.5385C102.704 78.7809 103.447 79.5677 103.916 80.8775C105.541 85.4154 103.616 95.325 102.323 100.828C100.591 108.205 98.1229 115.63 96.8221 117.381C95.7012 118.889 94.1513 119.643 92.1845 119.643H92.1839ZM83.4538 115.578C89.698 119.463 93.9902 119.917 96.2138 116.924C98.4787 113.876 105.895 88.6568 103.202 81.1364C102.819 80.0685 102.272 79.4615 101.528 79.2805C101.364 79.2407 100.744 79.3658 99.6387 82.6498C98.8505 84.9932 98.0376 88.2517 97.1774 91.7007C95.1441 99.8529 93.0414 108.282 90.2254 109.79C90.1446 109.833 90.0516 109.846 89.9625 109.825L86.3446 108.995C86.1752 110.297 85.513 114.126 83.4538 115.577V115.578Z" fill="#0C0C0C"/>
<path d="M65.8944 90.9122C65.7371 93.2959 65.4621 96.4256 65.0425 97.8532C64.9649 97.9622 64.8791 98.0596 64.7884 98.1415C64.2213 98.0441 63.563 98.4032 63.1208 98.718C61.9768 97.3131 60.1783 96.9319 58.4425 97.0674C58.3325 97.0027 58.272 96.9623 58.272 96.9623L59.9225 87.7344C61.7892 88.9882 63.7885 90.0551 65.8944 90.9122Z" fill="#0C0C0C"/>
<path d="M63.1208 99.0999C63.0108 99.0999 62.9019 99.0517 62.8271 98.9599C61.6551 97.5207 59.8115 97.343 58.4717 97.4476C58.3936 97.4531 58.3171 97.4354 58.2506 97.3962C58.1301 97.3248 58.0636 97.2811 58.0636 97.2811C57.9371 97.197 57.8716 97.0448 57.8986 96.8943L59.5491 87.6663C59.5717 87.5396 59.6564 87.4328 59.7741 87.3825C59.8918 87.3321 60.0271 87.3449 60.1332 87.4162C61.9851 88.6601 63.9717 89.717 66.0369 90.5575C66.1887 90.6195 66.2839 90.7722 66.2734 90.9365C66.115 93.3341 65.8362 96.4987 65.4072 97.9606C65.3951 98.0015 65.3764 98.0402 65.3511 98.0751C65.2559 98.2079 65.152 98.3258 65.042 98.4248C64.9556 98.5023 64.839 98.536 64.7252 98.5167C64.3825 98.4575 63.8793 98.6445 63.3408 99.0285C63.2743 99.0755 63.1978 99.0988 63.1219 99.0988L63.1208 99.0999ZM59.097 96.6597C60.4308 96.6597 62.0192 96.9806 63.1868 98.2173C63.6081 97.9583 64.1317 97.7287 64.6449 97.7448C64.6625 97.7243 64.6801 97.7033 64.6971 97.6811C65.081 96.3122 65.3412 93.4448 65.4974 91.1618C63.6532 90.3932 61.8729 89.4564 60.1943 88.3707L58.7098 96.6691C58.8358 96.6635 58.965 96.6602 59.097 96.6602V96.6597Z" fill="#0C0C0C"/>
<path d="M64.5436 107.287C64.3159 107.283 64.0541 107.243 63.7544 107.167L62.5801 108.106C62.5801 108.106 65.312 112.892 60.4329 113.929C59.972 116.051 56.2881 118.381 51.4657 114.051C51.4052 113.996 51.3403 113.935 51.276 113.866C49.7717 112.299 47.5178 107.482 52.3441 103.523C52.3441 103.523 53.4138 101.485 53.465 99.3644C53.4952 98.5626 55.9009 97.265 58.443 97.0664C60.1788 96.9308 61.9773 97.3126 63.1213 98.717C63.5635 98.4021 64.2213 98.043 64.7889 98.1404C65.4852 98.2605 66.0429 99.0661 65.895 101.48C65.5727 103.475 66.9917 107.337 64.5442 107.286L64.5436 107.287Z" fill="#FFFAF3"/>
<path d="M56.7094 116.872C55.3509 116.872 53.4573 116.352 51.2127 114.336C51.1434 114.272 51.0714 114.204 50.9999 114.128C50.2062 113.301 48.8983 111.219 49.0479 108.68C49.1678 106.648 50.1749 104.832 52.041 103.28C52.2176 102.92 53.042 101.151 53.0855 99.3553C53.1278 98.2332 55.8168 96.8891 58.4133 96.6861C59.8521 96.5737 61.8118 96.7597 63.1868 98.2166C63.6653 97.9222 64.2747 97.666 64.8516 97.7651C65.9351 97.9526 66.4131 99.2104 66.2723 101.505C66.2717 101.517 66.2701 101.53 66.2679 101.542C66.1755 102.113 66.242 102.902 66.3064 103.665C66.4208 105.028 66.5396 106.437 65.846 107.181C65.5336 107.515 65.0947 107.679 64.5359 107.668C64.3275 107.665 64.1003 107.635 63.8457 107.58L63.0592 108.209C63.3963 108.913 64.1207 110.739 63.4376 112.275C63.0036 113.25 62.0961 113.914 60.7387 114.249C60.4065 115.317 59.4385 116.24 58.2065 116.641C57.8287 116.765 57.3232 116.872 56.7078 116.872L56.7094 116.872ZM59.0942 97.4231C58.8786 97.4231 58.6696 97.4325 58.4722 97.448C55.9295 97.6467 53.861 98.9359 53.8439 99.3797C53.7911 101.559 52.7247 103.615 52.679 103.702C52.6554 103.748 52.6229 103.788 52.5833 103.82C50.8486 105.243 49.9136 106.894 49.8053 108.727C49.6705 111.002 50.8376 112.862 51.5482 113.601C51.6082 113.666 51.6659 113.72 51.7198 113.769C54.6959 116.441 56.9157 116.262 57.9739 115.917C59.0453 115.567 59.8648 114.755 60.0617 113.848C60.0936 113.702 60.208 113.587 60.3543 113.556C61.5885 113.294 62.3931 112.758 62.7462 111.964C63.4381 110.409 62.2628 108.318 62.2507 108.297C62.1572 108.133 62.1968 107.925 62.3436 107.808L63.5179 106.869C63.6108 106.795 63.7324 106.769 63.8473 106.798C64.1179 106.866 64.3544 106.903 64.5502 106.907C64.8868 106.914 65.1316 106.833 65.2927 106.66C65.7553 106.164 65.6464 104.872 65.5507 103.731C65.4836 102.93 65.4137 102.102 65.5166 101.441C65.6233 99.663 65.3422 98.6255 64.724 98.5187C64.383 98.4601 63.8781 98.6465 63.3397 99.0305C63.1774 99.1462 62.953 99.1158 62.8271 98.9608C61.8277 97.7341 60.3411 97.4237 59.0942 97.4237V97.4231Z" fill="#0C0C0C"/>
<path d="M64.5436 107.287C64.5266 110.316 64.02 117.675 59.636 119.207C55.5913 120.764 51.067 118.186 51.276 113.865C51.3404 113.934 51.4053 113.995 51.4658 114.051C56.2881 118.381 59.972 116.051 60.4329 113.928C65.312 112.892 62.5801 108.106 62.5801 108.106L63.7544 107.167C64.0541 107.243 64.3159 107.283 64.5436 107.287Z" fill="#FFFAF3"/>
<path d="M57.201 120.043C55.7809 120.043 54.3867 119.618 53.2559 118.795C51.6609 117.632 50.8007 115.829 50.8964 113.848C50.9035 113.695 51.0009 113.561 51.1439 113.508C51.2863 113.455 51.4469 113.493 51.5514 113.604C51.6086 113.665 51.6658 113.719 51.7197 113.768C54.6958 116.44 56.9155 116.261 57.9737 115.916C59.0451 115.566 59.8646 114.754 60.0615 113.847C60.0934 113.701 60.2078 113.586 60.3541 113.555C61.5867 113.293 62.3913 112.758 62.745 111.965C63.4363 110.415 62.2626 108.317 62.2505 108.296C62.1576 108.132 62.1972 107.924 62.3435 107.807L63.5177 106.868C63.6107 106.794 63.7322 106.768 63.8472 106.797C64.1178 106.865 64.3543 106.902 64.5501 106.906C64.758 106.909 64.9241 107.08 64.9224 107.29C64.9043 110.445 64.3658 117.958 59.7601 119.569C58.9329 119.887 58.0623 120.043 57.201 120.043ZM51.6796 114.738C51.8319 116.124 52.5315 117.324 53.7014 118.176C55.3117 119.35 57.5337 119.608 59.5 118.851C61.282 118.228 62.5772 116.498 63.3621 113.704C63.9869 111.478 64.1343 109.067 64.1601 107.638C64.06 107.623 63.9561 107.604 63.8466 107.581L63.0601 108.209C63.3973 108.913 64.1216 110.739 63.4385 112.275C63.0046 113.251 62.0971 113.915 60.7397 114.25C60.4075 115.317 59.4395 116.24 58.2075 116.642C57.053 117.018 54.7134 117.242 51.679 114.738H51.6796Z" fill="#0C0C0C"/>
<path d="M86.0155 108.527C86.0155 108.527 85.5144 114.176 82.8551 115.492C82.8078 115.514 82.7605 115.536 82.711 115.559C77.7753 117.725 75.967 115.39 75.2745 113.719C69.6574 113.112 71.4575 109.098 70.1485 107.222C65.7078 106.737 68.0255 104.06 67.8627 101.767C67.8627 97.9599 68.9479 97.7402 71.2282 98.1718C83.2154 95.0914 82.9761 103.128 83.4469 105.06C84.9039 105.224 86.0155 108.527 86.0155 108.527Z" fill="#FFFAF3"/>
<path d="M79.1525 116.772C76.8518 116.772 75.6468 115.461 75.0143 114.073C71.0086 113.56 70.6709 111.262 70.3987 109.408C70.2975 108.718 70.2012 108.063 69.9257 107.58C68.6321 107.416 67.8219 107.052 67.3852 106.44C66.8143 105.641 67.0376 104.613 67.2543 103.619C67.388 103.007 67.5255 102.373 67.4848 101.795C67.4842 101.786 67.4837 101.777 67.4837 101.768C67.4837 99.7523 67.7763 98.6478 68.4621 98.0751C69.11 97.5345 69.9983 97.5572 71.2154 97.7818C75.3707 96.7266 78.5359 96.8959 80.6254 98.2837C83.0162 99.8723 83.4485 102.691 83.6812 104.205C83.712 104.405 83.74 104.587 83.7681 104.741C85.263 105.223 86.2601 108.064 86.3751 108.405C86.3921 108.456 86.3982 108.509 86.3938 108.561C86.3723 108.801 85.8416 114.44 83.0228 115.834C82.9871 115.851 82.9546 115.866 82.9211 115.882L82.8705 115.905C81.3899 116.518 80.165 116.772 79.153 116.772H79.1525ZM68.2421 101.755C68.2883 102.438 68.1393 103.122 67.9952 103.783C67.7977 104.69 67.6272 105.473 68.0007 105.995C68.3186 106.44 69.0347 106.717 70.1891 106.843C70.2975 106.855 70.3959 106.913 70.4586 107.004C70.9052 107.644 71.0235 108.447 71.1483 109.298C71.4239 111.175 71.6846 112.948 75.314 113.34C75.4515 113.355 75.5703 113.444 75.6237 113.573C76.6808 116.126 79.0166 116.675 82.5652 115.206C82.5652 115.206 82.6615 115.162 82.6895 115.148C84.9643 114.023 85.5561 109.247 85.6282 108.573C85.2124 107.38 84.2691 105.537 83.4034 105.439C83.2456 105.422 83.1152 105.307 83.0773 105.151C83.0234 104.931 82.9805 104.649 82.9299 104.322C82.7005 102.826 82.3161 100.323 80.2057 98.9206C78.289 97.6468 75.2992 97.5195 71.3205 98.5421C71.2666 98.5559 71.211 98.5576 71.1566 98.5471C70.1132 98.3501 69.379 98.3003 68.945 98.6622C68.466 99.0622 68.2421 100.045 68.241 101.754L68.2421 101.755Z" fill="#0C0C0C"/>
<path d="M74.0703 138.969C68.9938 141.982 38.8731 145.83 39.2317 140.612C39.5353 136.201 40.7623 132.501 46.2585 130.646C47.2622 130.306 48.4095 130.029 49.7185 129.821C49.7185 129.821 54.9677 130.031 57.7166 131.173C60.4655 132.316 62.4274 130.646 62.4274 130.646C64.6697 126.951 64.5443 123.155 64.5443 123.155C66.5535 125.765 71.1251 130.783 73.2893 136.442C73.6078 137.272 73.8734 138.116 74.0709 138.969L74.0703 138.969Z" fill="#A589C7"/>
<path d="M48.0699 143.577C42.6942 143.577 40.6213 142.763 39.8804 142.302C38.9729 141.739 38.8211 141.057 38.8536 140.585C39.1407 136.415 40.2214 132.28 46.1378 130.283C47.1723 129.933 48.357 129.651 49.6594 129.444C49.6836 129.44 49.7089 129.438 49.7337 129.44C49.9509 129.448 55.0819 129.665 57.861 130.82C60.1628 131.777 61.8392 130.618 62.1378 130.389C64.2548 126.86 64.1657 123.204 64.1646 123.167C64.1596 123.002 64.2608 122.852 64.4154 122.796C64.5699 122.74 64.7432 122.79 64.8438 122.921C65.1887 123.37 65.605 123.884 66.0868 124.478C68.3743 127.302 71.8316 131.57 73.6433 136.305C73.9788 137.178 74.2466 138.046 74.4402 138.883C74.4776 139.045 74.4061 139.213 74.2637 139.298C72.0087 140.636 65.0132 142.161 57.2522 143.005C53.4407 143.42 50.4355 143.577 48.0705 143.577H48.0699ZM49.7403 130.204C48.4951 130.404 47.3643 130.674 46.3798 131.008C41.1916 132.759 39.9211 136.124 39.6109 140.639C39.601 140.781 39.5713 141.213 40.2797 141.653C42.3637 142.949 48.6782 143.17 57.1708 142.246C64.4484 141.454 71.2453 140.015 73.6345 138.775C73.4557 138.059 73.2214 137.322 72.936 136.579C71.1683 131.957 67.7566 127.746 65.4994 124.96C65.2811 124.69 65.0759 124.437 64.8845 124.198C64.7679 125.612 64.3323 128.239 62.7516 130.844C62.7307 130.879 62.7038 130.91 62.673 130.936C62.5855 131.011 60.5016 132.742 57.5728 131.525C55.0373 130.472 50.2116 130.225 49.7414 130.204L49.7403 130.204Z" fill="#0C0C0C"/>
<path d="M121.798 141.07C116.619 141.982 102.841 143.35 98.0316 140.522C97.8705 139.174 97.8628 137.869 97.9519 136.646C98.316 131.649 100.314 127.973 100.314 127.973C102.759 127.966 103.626 127.735 103.626 127.735L113.877 126.926C115.736 126.779 116.647 125.804 116.647 125.804C120.213 128.552 121.818 134.087 122.123 137.724V137.726C122.264 139.38 122.133 140.642 121.798 141.07H121.798Z" fill="#A589C7"/>
<path d="M108.418 142.591C104.111 142.591 100.046 142.149 97.8402 140.851C97.7379 140.791 97.6691 140.686 97.6548 140.568C97.5025 139.295 97.475 137.966 97.5734 136.618C97.9397 131.596 99.8977 127.943 99.9808 127.791C100.047 127.668 100.174 127.593 100.312 127.592C102.654 127.585 103.522 127.368 103.53 127.366C103.551 127.36 103.574 127.356 103.596 127.355L113.848 126.545C115.522 126.413 116.364 125.549 116.372 125.54C116.506 125.4 116.724 125.382 116.878 125.5C118.529 126.772 119.94 128.773 120.96 131.285C121.765 133.27 122.327 135.604 122.502 137.691C122.502 137.695 122.503 137.699 122.503 137.702C122.575 138.547 122.675 140.568 122.096 141.306C122.038 141.379 121.955 141.429 121.864 141.445C118.757 141.992 113.425 142.591 108.418 142.591L108.418 142.591ZM98.3863 140.285C100.448 141.406 104.375 141.936 109.767 141.817C114.376 141.716 118.957 141.171 121.565 140.723C121.751 140.326 121.876 139.296 121.745 137.758C121.745 137.754 121.745 137.751 121.744 137.747C121.414 133.836 119.716 128.842 116.657 126.3C116.239 126.628 115.327 127.194 113.907 127.306L103.685 128.113C103.496 128.157 102.601 128.335 100.546 128.354C100.141 129.174 98.6371 132.466 98.3302 136.674C98.2406 137.906 98.2593 139.12 98.3863 140.285Z" fill="#0C0C0C"/>
<path d="M121.798 141.07C116.619 141.982 102.841 143.35 98.0316 140.522C97.8705 139.174 97.8628 137.869 97.9519 136.646C98.8836 137.512 100.255 138.444 100.644 136.892C101.251 134.474 102.359 130.497 111.542 130.319C117.651 130.201 118.807 130.531 122.123 137.724V137.726C122.264 139.38 122.133 140.642 121.798 141.07H121.798Z" fill="#FFFAF3"/>
<path d="M108.418 142.591C104.111 142.591 100.046 142.149 97.8402 140.852C97.7379 140.791 97.6691 140.686 97.6548 140.568C97.5025 139.295 97.475 137.966 97.5734 136.618C97.5839 136.472 97.6768 136.345 97.8127 136.291C97.9485 136.237 98.1025 136.266 98.2092 136.366C99.3257 137.404 99.8114 137.366 99.9335 137.329C100.084 137.284 100.199 137.105 100.276 136.798C100.845 134.53 101.905 130.309 111.527 129.937H111.538C117.78 129.937 119.061 130.174 122.467 137.563C122.488 137.607 122.499 137.654 122.502 137.702C122.574 138.547 122.674 140.568 122.095 141.306C122.037 141.379 121.954 141.429 121.862 141.445C118.756 141.992 113.424 142.591 108.417 142.591L108.418 142.591ZM98.3863 140.285C100.448 141.406 104.375 141.936 109.767 141.817C114.376 141.716 118.957 141.171 121.565 140.723C121.749 140.331 121.872 139.325 121.751 137.823C118.461 130.7 117.393 130.7 111.542 130.7C102.501 131.05 101.569 134.765 101.011 136.985C100.864 137.571 100.574 137.933 100.149 138.061C99.6469 138.211 99.0348 138.005 98.2879 137.432C98.2521 138.404 98.2846 139.359 98.3858 140.285H98.3863Z" fill="#0C0C0C"/>
<path d="M74.0703 138.969C68.9938 141.982 38.8731 145.83 39.2317 140.612C39.5353 136.201 40.7623 132.501 46.2585 130.646C53.2165 130.728 54.1939 135.039 56.4874 138.477C60.5871 139.961 69.7264 137.507 73.2893 136.442C73.6078 137.272 73.8734 138.116 74.0709 138.969L74.0703 138.969Z" fill="#FFFAF3"/>
<path d="M48.0699 143.577C42.6942 143.577 40.6213 142.763 39.8804 142.302C38.9729 141.738 38.8211 141.057 38.8536 140.585C39.1407 136.415 40.2214 132.28 46.1378 130.283C46.1779 130.27 46.2225 130.265 46.2632 130.263C52.2004 130.334 53.9676 133.416 55.6764 136.398C56.0119 136.983 56.3584 137.587 56.7319 138.157C58.1795 138.635 62.5063 139.266 73.1807 136.075C73.3705 136.018 73.5718 136.118 73.6427 136.304C73.9782 137.177 74.2461 138.044 74.4397 138.882C74.4771 139.044 74.4056 139.212 74.2631 139.297C72.0081 140.635 65.0127 142.16 57.2516 143.004C53.4401 143.418 50.4349 143.576 48.0699 143.576V143.577ZM46.3182 131.028C41.1806 132.785 39.9195 136.141 39.6104 140.638C39.6005 140.781 39.5708 141.213 40.2792 141.653C42.3631 142.949 48.6777 143.17 57.1702 142.246C64.4478 141.454 71.2447 140.015 73.6339 138.775C73.4816 138.165 73.2885 137.54 73.0586 136.908C69.1415 138.06 60.4218 140.306 56.359 138.835C56.2831 138.807 56.2176 138.757 56.1725 138.688C55.7578 138.067 55.3822 137.412 55.0197 136.779C53.3499 133.866 51.772 131.113 46.3187 131.028L46.3182 131.028Z" fill="#0C0C0C"/>
<path d="M59.2316 134.873C57.746 133.565 56.3386 132.594 55.0846 131.873C51.909 130.044 49.7178 129.821 49.7178 129.821C49.7178 129.821 54.967 130.031 57.7158 131.172C60.4647 132.315 62.4265 130.645 62.4265 130.645C62.4265 130.645 63.0277 133.014 59.2316 134.873Z" fill="#FFFAF3"/>
<path d="M59.2315 135.255C59.1413 135.255 59.0522 135.222 58.9818 135.16C57.6629 133.999 56.2885 133.005 54.8965 132.204C51.8413 130.445 49.7007 130.203 49.6792 130.2C49.4757 130.179 49.325 129.999 49.3399 129.793C49.3547 129.587 49.528 129.431 49.7331 129.439C49.9504 129.448 55.0812 129.665 57.8604 130.819C60.3667 131.861 62.163 130.369 62.1806 130.354C62.2807 130.269 62.4171 130.241 62.5409 130.281C62.6657 130.321 62.7609 130.423 62.7933 130.55C62.8208 130.659 63.4247 133.243 59.3971 135.215C59.3443 135.241 59.2876 135.254 59.231 135.254L59.2315 135.255ZM53.29 130.531C53.8933 130.798 54.5588 131.13 55.2732 131.541C56.641 132.328 57.9907 133.295 59.2887 134.417C61.4392 133.3 61.9584 132.058 62.0618 131.339C61.2275 131.795 59.6022 132.369 57.5711 131.525C56.4111 131.043 54.7722 130.73 53.29 130.53V130.531Z" fill="#0C0C0C"/>
<path d="M116.647 125.804C116.647 125.804 115.736 126.779 113.877 126.926L103.626 127.735C103.626 127.735 102.759 127.966 100.314 127.973C96.9847 121.569 99.4812 118.649 102.628 117.383C102.624 117.994 102.602 118.616 102.56 119.25C102.429 121.383 102.809 126.634 111.002 123.971C111.584 123.622 113.185 121.475 112.75 117.123C118.125 118.671 117.405 122.732 116.647 125.803V125.804Z" fill="#FFFAF3"/>
<path d="M100.314 128.355C100.173 128.355 100.043 128.276 99.9777 128.15C98.3992 125.114 97.9707 122.564 98.7039 120.571C99.2825 118.997 100.556 117.805 102.487 117.029C102.604 116.982 102.738 116.996 102.842 117.068C102.947 117.14 103.009 117.259 103.008 117.386C103.004 118.001 102.981 118.636 102.938 119.275C102.854 120.651 103.031 122.51 104.356 123.544C105.661 124.564 107.842 124.59 110.839 123.624C111.417 123.229 112.764 121.078 112.373 117.162C112.36 117.036 112.411 116.912 112.507 116.831C112.604 116.75 112.734 116.722 112.855 116.757C118.843 118.482 117.654 123.305 117.015 125.896C117 125.96 116.968 126.018 116.923 126.065C116.882 126.11 115.889 127.15 113.907 127.307L103.685 128.114C103.489 128.159 102.534 128.349 100.314 128.356V128.355ZM102.239 117.971C100.811 118.656 99.8627 119.618 99.415 120.836C98.7754 122.574 99.1554 124.846 100.544 127.59C102.711 127.57 103.521 127.367 103.53 127.366C103.55 127.36 103.574 127.356 103.595 127.355L113.847 126.545C115.272 126.432 116.079 125.805 116.304 125.604C117.09 122.377 117.442 119.136 113.174 117.657C113.42 121.615 111.975 123.832 111.195 124.299C111.171 124.314 111.144 124.326 111.117 124.335C107.843 125.398 105.412 125.335 103.89 124.147C102.304 122.909 102.085 120.787 102.18 119.226C102.208 118.804 102.228 118.383 102.238 117.971H102.239Z" fill="#0C0C0C"/>
<path d="M103.626 127.735L113.877 126.926C113.877 126.926 114.403 128 112.71 128.304C111.018 128.606 106.24 129.023 105.073 129.023C103.907 129.023 103.625 127.736 103.625 127.736L103.626 127.735Z" fill="#FFFAF3"/>
<path d="M105.073 129.404C103.91 129.404 103.375 128.366 103.255 127.818C103.231 127.71 103.255 127.597 103.32 127.508C103.385 127.42 103.486 127.363 103.596 127.355L113.848 126.545C114.004 126.532 114.15 126.617 114.218 126.758C114.245 126.812 114.471 127.306 114.21 127.824C113.99 128.261 113.508 128.549 112.777 128.68C111.037 128.991 106.219 129.405 105.073 129.405V129.404ZM104.169 128.076C104.324 128.345 104.603 128.641 105.073 128.641C106.198 128.641 110.932 128.234 112.644 127.928C113.11 127.844 113.425 127.687 113.531 127.485C113.557 127.434 113.57 127.382 113.574 127.333L104.169 128.076V128.076Z" fill="#0C0C0C"/>
<path d="M95.4263 59.2016C95.4263 59.2016 87.9777 51.3564 100.25 51.0731C106.064 50.9387 107.382 53.4126 106.125 56.0897L95.4263 59.2016Z" fill="#F0C0EB"/>
<path d="M95.3988 59.2283C93.289 57.5356 91.282 54.0966 94.0293 51.9912C96.5769 49.9981 104.06 49.6373 106.204 52.3547C107.126 53.4354 106.909 55.0174 106.157 56.1091C106.133 56.149 106.071 56.1141 106.091 56.0732C106.294 55.6294 106.45 55.1596 106.499 54.6748C106.875 50.127 98.0564 50.8602 95.3779 52.0155C93.1784 52.928 92.7533 54.7042 93.7818 56.7726C94.2135 57.6502 94.7943 58.4553 95.4527 59.1757C95.4879 59.2072 95.4307 59.2648 95.3982 59.2288L95.3988 59.2283Z" fill="#0C0C0C"/>
<path d="M56.0872 55.0423C56.0872 55.0423 57.8786 48.5948 51.2858 49.2289C47.8923 49.473 45.9932 51.4722 46.5063 54.8375L56.0872 55.0423Z" fill="#F0C0EB"/>
<path d="M56.0506 55.0323C56.1683 53.104 55.8443 50.5752 53.69 50.0512C52.4448 49.7237 50.9653 49.8675 49.702 50.1818C48.4106 50.5205 47.3227 51.4207 46.8953 52.6962C46.6572 53.3491 46.5758 54.0789 46.5433 54.832C46.5461 54.8547 46.5274 54.8774 46.5037 54.8757C46.4856 54.8752 46.4707 54.8614 46.468 54.8436C46.3563 54.1049 46.342 53.3419 46.5048 52.6054C46.8051 51.097 48.0498 49.9367 49.4825 49.499C52.4811 48.6364 56.1375 48.9601 56.3421 52.8229C56.3822 53.5732 56.3058 54.3246 56.1232 55.0528C56.1056 55.1004 56.0412 55.0827 56.05 55.0323H56.0506Z" fill="#0C0C0C"/>
<path d="M48.93 53.0632C49.432 53.0364 49.8235 52.7218 49.8044 52.3604C49.7853 51.9991 49.3629 51.728 48.861 51.7548C48.3589 51.7816 47.9674 52.0963 47.9865 52.4575C48.0056 52.8189 48.428 53.0901 48.93 53.0632Z" fill="#FFFAF3"/>
<path d="M51.9732 51.85C52.5007 51.8219 52.9128 51.5061 52.8938 51.1448C52.8747 50.7835 52.4316 50.5134 51.9041 50.5416C51.3766 50.5698 50.9645 50.8855 50.9835 51.2468C51.0026 51.6082 51.4457 51.8782 51.9732 51.85Z" fill="#FFFAF3"/>
<path d="M53.8696 53.8266C54.3723 53.7998 54.7642 53.4851 54.7452 53.1238C54.7261 52.7624 54.3032 52.4913 53.8005 52.5182C53.2979 52.545 52.906 52.8597 52.925 53.221C52.9441 53.5824 53.367 53.8535 53.8696 53.8266Z" fill="#FFFAF3"/>
<path d="M96.9365 55.4362C97.5145 55.2633 97.8841 54.7861 97.7615 54.3701C97.6383 53.9541 97.0701 53.7568 96.4921 53.9294C95.9135 54.1021 95.5444 54.5794 95.6671 54.9954C95.7897 55.4113 96.3579 55.6088 96.9365 55.4362Z" fill="#FFFAF3"/>
<path d="M100.477 53.555C101.085 53.3735 101.478 52.8892 101.355 52.4732C101.233 52.0572 100.64 51.867 100.033 52.0485C99.4248 52.23 99.0321 52.7143 99.1548 53.1303C99.2774 53.5463 99.8697 53.7365 100.477 53.555Z" fill="#FFFAF3"/>
<path d="M103.355 54.8285C103.934 54.6556 104.304 54.1782 104.181 53.7622C104.058 53.3462 103.49 53.1491 102.911 53.3219C102.331 53.4948 101.962 53.9721 102.085 54.3882C102.207 54.8042 102.776 55.0013 103.355 54.8285Z" fill="#FFFAF3"/>
<path d="M62.4264 130.645C62.4264 130.645 60.4646 132.315 57.7157 131.172C54.9668 130.031 49.7176 129.821 49.7176 129.821C49.5449 129.155 49.6208 128.237 50.2599 127.101C54.1088 128.334 60.0999 126.363 59.2309 122.168C58.8591 122.007 58.1364 121.607 57.4192 120.933C59.2744 119.917 62.7861 118.761 64.5423 123.154C64.5423 123.154 64.6677 126.95 62.4253 130.645H62.4264Z" fill="#FFFAF3"/>
<path d="M59.6546 131.958C59.0298 131.958 58.3286 131.84 57.5707 131.525C54.9153 130.422 49.7547 130.205 49.703 130.203C49.5363 130.196 49.3928 130.08 49.351 129.918C49.1909 129.301 49.1618 128.279 49.9307 126.914C50.0192 126.756 50.2046 126.683 50.3762 126.738C52.8374 127.527 56.0945 126.938 57.7907 125.399C58.7037 124.57 59.0744 123.573 58.894 122.432C58.5431 122.259 57.8704 121.879 57.1609 121.213C57.0718 121.129 57.0278 121.007 57.0432 120.886C57.0586 120.764 57.1312 120.657 57.2385 120.598C58.4815 119.918 60.3218 119.237 62.0317 119.856C63.2736 120.305 64.2367 121.367 64.895 123.013C64.9115 123.055 64.9209 123.098 64.9225 123.143C64.928 123.303 65.0254 127.096 62.75 130.846C62.7291 130.88 62.7022 130.912 62.6714 130.938C62.6065 130.993 61.4449 131.959 59.6546 131.959V131.958ZM50.0346 129.454C51.2056 129.518 55.4317 129.811 57.8605 130.82C60.1507 131.772 61.8475 130.609 62.1373 130.389C64.0992 127.118 64.1663 123.738 64.1652 123.232C63.5932 121.834 62.7891 120.94 61.7754 120.573C60.5335 120.124 59.1602 120.513 58.0965 121.016C58.7301 121.522 59.263 121.766 59.3813 121.817C59.4951 121.867 59.5782 121.968 59.6035 122.09C59.9104 123.572 59.4594 124.912 58.2994 125.965C56.4916 127.605 53.1042 128.278 50.4504 127.555C50.0423 128.375 49.9813 129.009 50.0352 129.454L50.0346 129.454Z" fill="#0C0C0C"/>
<path d="M64.0055 43.5112L65.1423 45.828L67.6839 46.1999L65.8447 48.0032L66.2792 50.5502L64.0055 49.3478L61.7323 50.5502L62.1668 48.0032L60.3276 46.1999L62.8692 45.828L64.0055 43.5112Z" fill="#0C0C0C"/>
<path d="M66.2796 50.9321C66.2191 50.9321 66.1586 50.9177 66.103 50.8883L64.0064 49.7795L61.9098 50.8883C61.7822 50.9559 61.6271 50.9448 61.51 50.859C61.3934 50.7738 61.3345 50.6288 61.3593 50.4855L61.7597 48.1366L60.0635 46.4733C59.9601 46.372 59.9227 46.2204 59.9672 46.0821C60.0118 45.9438 60.1306 45.8431 60.2736 45.8226L62.6177 45.4801L63.666 43.3431C63.7298 43.2131 63.8618 43.1306 64.0064 43.1306C64.1511 43.1306 64.2825 43.2131 64.3469 43.3431L65.3952 45.4801L67.7393 45.8226C67.8823 45.8436 68.0011 45.9443 68.0456 46.0821C68.0902 46.2204 68.0528 46.372 67.9494 46.4733L66.2532 48.1366L66.6536 50.4855C66.6778 50.6288 66.6195 50.7733 66.5029 50.859C66.4369 50.9072 66.3582 50.9321 66.2796 50.9321ZM64.0064 48.9661C64.0669 48.9661 64.1274 48.9805 64.183 49.0098L65.7758 49.8525L65.4716 48.068C65.4507 47.9441 65.4914 47.8179 65.5805 47.7299L66.8692 46.4661L65.0883 46.2055C64.9645 46.1872 64.8578 46.1092 64.8028 45.9969L64.0064 44.3734L63.21 45.9969C63.1545 46.1098 63.0478 46.1878 62.9246 46.2055L61.1437 46.4661L62.4323 47.7299C62.522 47.8173 62.5627 47.9441 62.5412 48.068L62.2371 49.8525L63.8299 49.0098C63.8854 48.9805 63.9459 48.9661 64.0064 48.9661Z" fill="#0C0C0C"/>
<path d="M84.4889 43.731L85.6252 46.0483L88.1668 46.4196L86.3281 48.2235L86.7621 50.7699L84.4889 49.5675L82.2158 50.7699L82.6497 48.2235L80.8105 46.4196L83.3521 46.0483L84.4889 43.731Z" fill="#0C0C0C"/>
<path d="M86.762 51.1518C86.7015 51.1518 86.641 51.1374 86.5855 51.1081L84.4889 49.9992L82.3923 51.1081C82.2647 51.1756 82.1096 51.1645 81.9924 51.0787C81.8758 50.9935 81.817 50.8486 81.8417 50.7052L82.2421 48.3563L80.5459 46.693C80.4425 46.5918 80.4051 46.4402 80.4496 46.3018C80.4942 46.1635 80.613 46.0628 80.756 46.0423L83.1001 45.6998L84.1484 43.5628C84.2122 43.4328 84.3442 43.3503 84.4889 43.3503C84.6335 43.3503 84.765 43.4328 84.8293 43.5628L85.8776 45.6998L88.2217 46.0423C88.3647 46.0633 88.4835 46.164 88.5281 46.3018C88.5726 46.4402 88.5352 46.5918 88.4318 46.693L86.7356 48.3563L87.136 50.7052C87.1602 50.8486 87.1019 50.993 86.9853 51.0787C86.9193 51.1269 86.8407 51.1518 86.762 51.1518ZM81.6261 46.6864L82.9148 47.9502C83.0044 48.0376 83.0451 48.1643 83.0237 48.2883L82.7195 50.0728L84.3123 49.2301C84.4228 49.172 84.5549 49.172 84.6654 49.2301L86.2582 50.0722L85.9541 48.2877C85.9332 48.1638 85.9739 48.0376 86.063 47.9496L87.3516 46.6858L85.5707 46.4252C85.4469 46.407 85.3403 46.3289 85.2853 46.2166L84.4889 44.5931L83.6925 46.2166C83.6369 46.3295 83.5302 46.4075 83.407 46.4252L81.6261 46.6858V46.6864Z" fill="#0C0C0C"/>
<path d="M58.7007 67.4216C58.6556 67.4216 58.6094 67.4105 58.5671 67.3878C58.4285 67.3137 58.3762 67.1399 58.4499 67.0005L62.5579 59.2555C62.6321 59.116 62.8043 59.0635 62.9429 59.1376C63.0815 59.2118 63.1337 59.3855 63.06 59.525L58.9521 67.27C58.9009 67.3662 58.8025 67.4216 58.7007 67.4216Z" fill="#0C0C0C"/>
<path d="M64.3154 72.0673C64.2857 72.0673 64.2554 72.0623 64.2257 72.0529C64.0767 72.0031 63.9958 71.8409 64.0453 71.691L67.1919 62.151C67.2414 62.001 67.402 61.9197 67.5516 61.9695C67.7006 62.0193 67.7815 62.1814 67.732 62.3314L64.5854 71.8714C64.5458 71.9914 64.4347 72.0678 64.3154 72.0678V72.0673Z" fill="#0C0C0C"/>
<path d="M72.3615 67.4214C72.2042 67.4214 72.0771 67.2931 72.0771 67.1354V62.9599C72.0771 62.8016 72.2048 62.6738 72.3615 62.6738C72.5183 62.6738 72.6458 62.8022 72.6458 62.9599V67.1354C72.6458 67.2936 72.5183 67.4214 72.3615 67.4214Z" fill="#0C0C0C"/>
<path d="M72.1441 74.3065C72.1397 74.3065 72.1347 74.3065 72.1303 74.3065C71.9736 74.2987 71.852 74.1648 71.8597 74.0066L72.077 69.4836C72.0847 69.3259 72.2194 69.2003 72.3751 69.2114C72.5318 69.2191 72.6534 69.353 72.6457 69.5113L72.4284 74.0342C72.4213 74.1875 72.2953 74.3065 72.1446 74.3065H72.1441Z" fill="#0C0C0C"/>
<path d="M81.3771 73.5005C81.2412 73.5005 81.1213 73.402 81.0971 73.2631L79.0555 61.3963C79.0286 61.2403 79.1325 61.0925 79.2876 61.0654C79.4427 61.0389 79.5896 61.1429 79.6165 61.2989L81.6581 73.1657C81.6851 73.3218 81.5811 73.4695 81.426 73.4966C81.4095 73.4994 81.393 73.501 81.3771 73.501V73.5005Z" fill="#0C0C0C"/>
<path d="M86.5933 64.2587C86.474 64.2587 86.3634 64.1829 86.3233 64.0628L84.6953 59.1608C84.6458 59.0109 84.7261 58.8487 84.8751 58.7984C85.0247 58.7486 85.1853 58.8294 85.2354 58.9793L86.8634 63.8813C86.9129 64.0313 86.8326 64.1934 86.6835 64.2437C86.6538 64.2537 86.623 64.2587 86.5933 64.2587Z" fill="#0C0C0C"/>
<path d="M88.7103 70.0326C88.5959 70.0326 88.4881 69.9629 88.4446 69.8494L86.7985 65.5633C86.7418 65.4161 86.815 65.2501 86.9613 65.1931C87.1081 65.1361 87.2726 65.2097 87.3292 65.3569L88.9754 69.643C89.032 69.7902 88.9589 69.9562 88.8126 70.0132C88.779 70.0265 88.7444 70.0326 88.7103 70.0326Z" fill="#0C0C0C"/>
<path d="M70.1487 107.604C69.9716 107.604 69.8138 107.479 69.7775 107.298C69.7263 107.043 69.3209 104.884 70.0227 103.783C69.5371 102.059 69.1879 98.4839 71.1035 97.8116C71.3015 97.7419 71.5176 97.847 71.5864 98.0462C71.6557 98.2454 71.5512 98.4628 71.3532 98.532C70.0645 98.9846 70.3093 102.164 70.8021 103.741C70.8412 103.867 70.8131 104.004 70.7273 104.105C70.2466 104.666 70.3456 106.268 70.5205 107.146C70.5617 107.353 70.4287 107.554 70.2235 107.596C70.1982 107.601 70.1729 107.603 70.1482 107.603L70.1487 107.604Z" fill="#0C0C0C"/>
<path d="M72.2402 108.343C73.272 107.752 74.5843 107.658 75.6865 108.106C74.6553 108.702 73.343 108.788 72.2402 108.343Z" fill="#0C0C0C"/>
<path d="M72.4839 103.122C73.4018 102.466 74.6228 102.286 75.6865 102.662C74.7697 103.322 73.5476 103.494 72.4839 103.122Z" fill="#0C0C0C"/>
<path d="M75.2973 113.338C76.7845 113.509 78.3575 113.486 79.81 113.064C80.2923 112.914 80.7681 112.71 81.1669 112.376C80.4354 113.132 79.3832 113.489 78.3828 113.728C77.3504 113.966 76.3181 114.077 75.2533 114.1C75.0432 114.102 74.871 113.933 74.8683 113.722C74.8633 113.491 75.0701 113.311 75.2973 113.337V113.338Z" fill="#0C0C0C"/>
<path d="M82.5791 109.365C82.979 108.016 83.3717 106.521 83.0736 105.125C82.9575 104.634 83.6692 104.443 83.81 104.93C83.9305 106.51 83.2523 107.988 82.5791 109.365V109.365Z" fill="#0C0C0C"/>
<path d="M62.5796 108.488C62.518 108.488 62.4558 108.473 62.3981 108.441C62.2144 108.339 62.1467 108.108 62.2468 107.923C63.1263 106.303 62.7726 104.904 62.2193 103.243C62.1764 103.114 62.205 102.972 62.2941 102.87C63.6988 101.263 62.7776 98.8835 62.7682 98.8597C62.6907 98.6644 62.7847 98.4419 62.9789 98.3633C63.1736 98.2848 63.3936 98.3794 63.4717 98.5742C63.5168 98.6859 64.52 101.256 63.0053 103.202C63.5591 104.9 63.8979 106.472 62.9123 108.288C62.8436 108.415 62.7132 108.487 62.579 108.487L62.5796 108.488Z" fill="#0C0C0C"/>
<path d="M56.4546 102.283C57.444 101.526 59.028 101.351 60.0901 102.047C58.8878 102.404 57.6888 102.55 56.4546 102.283Z" fill="#0C0C0C"/>
<path d="M56.207 107.994C57.1866 107.299 58.6556 107.304 59.6368 107.994C58.5016 108.349 57.3439 108.337 56.207 107.994Z" fill="#0C0C0C"/>
<path d="M52.695 103.669C52.3738 104.296 52.1214 105.002 51.9498 105.694C51.7787 106.403 51.6836 107.143 51.8607 107.864C51.7094 107.524 51.628 107.151 51.5851 106.774C51.4801 105.625 51.6764 104.487 51.9927 103.379C52.0543 103.176 52.2671 103.062 52.4684 103.124C52.6945 103.191 52.8023 103.458 52.6945 103.669H52.695Z" fill="#0C0C0C"/>
<path d="M52.9097 110.973C53.2331 111.991 53.7627 113.177 54.8352 113.516C55.1558 113.599 55.5479 113.575 55.9214 113.587C57.4262 113.599 58.9348 113.576 60.4407 113.547C60.6508 113.542 60.8252 113.71 60.8296 113.922C60.8351 114.144 60.6453 114.326 60.4253 114.31C58.9156 114.212 57.4097 114.107 55.9021 113.968C55.6964 113.94 55.246 113.916 55.0452 113.868C53.7303 113.6 53.1698 112.147 52.9102 110.973H52.9097Z" fill="#0C0C0C"/>
<path d="M61.5687 133.408C61.5362 133.408 61.5038 133.401 61.4724 133.388L55.6996 130.805C55.5797 130.751 55.5258 130.61 55.5792 130.49C55.6325 130.369 55.7728 130.316 55.8921 130.369L61.6649 132.952C61.7848 133.005 61.8387 133.146 61.7854 133.266C61.7463 133.356 61.6594 133.408 61.5687 133.408Z" fill="#0C0C0C"/>
<path d="M47.7171 140.292C43.9034 140.292 41.3321 139.63 41.2953 139.62C41.1688 139.587 41.0929 139.457 41.1259 139.329C41.1589 139.202 41.2881 139.126 41.4152 139.159C41.4669 139.173 46.6798 140.511 53.2726 139.327C53.4013 139.303 53.5245 139.39 53.5476 139.52C53.5707 139.649 53.4849 139.773 53.3557 139.796C51.3097 140.164 49.3924 140.292 47.716 140.292H47.7171Z" fill="#0C0C0C"/>
<path d="M111.852 139.685C106.344 139.685 101.93 139.125 101.864 139.116C101.734 139.1 101.642 138.98 101.659 138.849C101.675 138.718 101.794 138.627 101.924 138.643C102.023 138.655 111.895 139.908 120.529 138.643C120.659 138.625 120.779 138.715 120.798 138.845C120.817 138.975 120.727 139.096 120.598 139.115C117.683 139.542 114.628 139.685 111.852 139.685L111.852 139.685Z" fill="#0C0C0C"/>
<path d="M60.1851 88.5864L58.7012 96.348L59.3958 95.8594L60.7549 89.0817L60.1851 88.5864Z" fill="#FFFAF3"/>
<path d="M66.1817 96.0503L66.0161 97.0413L71.2285 93.3318L66.1817 96.0503Z" fill="#FFFAF3"/>
<path d="M49.8284 126.539C49.8284 126.539 44.4934 125 46.6621 116.107C47.6119 112.21 48.3121 111.249 49.3015 110.069L49.4154 110.973C48.1245 112.638 46.2512 118.286 46.738 121.492C47.1175 123.988 47.4728 124.215 49.8279 126.539H49.8284Z" fill="#FFFAF3"/>
<path d="M102.345 79.9787C102.345 79.9787 101.088 78.8023 100.052 81.071C99.0159 83.3397 94.6093 104.949 90.5151 109.126L91.9314 109.365C91.9314 109.365 96.003 101.082 97.9022 92.0674C98.8515 87.7686 100.325 80.3013 101.574 80.1846C102.184 80.2139 102.651 80.3876 102.345 79.9793L102.345 79.9787Z" fill="#FFFAF3"/>
<path d="M86.579 108.79L94.8422 110.373C94.8422 110.373 95.0825 111.058 93.7917 110.854C92.5008 110.649 86.5322 109.435 86.5322 109.435L86.579 108.79Z" fill="#FFFAF3"/>
<path d="M103.625 99.0715C103.625 99.0715 112.782 110.691 112.359 118.304C112.123 122.542 111.133 123.563 111.133 123.563L110.281 123.861C110.281 123.861 112.8 119.529 110.8 112.904C108.277 106.133 103.626 99.7095 103.626 99.7095V99.0715H103.625Z" fill="#FFFAF3"/>
<path d="M122.489 84.5287L119.322 85.9231C119.007 86.062 118.777 86.3896 118.717 86.7852L117.069 97.5808L115.421 86.7852C115.361 86.3896 115.13 86.062 114.816 85.9231L111.649 84.5287L114.816 83.1344C115.131 82.9955 115.361 82.6679 115.422 82.2723L117.07 71.4795L118.717 82.2723C118.778 82.6679 119.008 82.9955 119.323 83.1344L122.49 84.5287H122.489Z" fill="#A589C7"/>
<path d="M117.069 97.8195C116.952 97.8195 116.853 97.7337 116.835 97.617L115.187 86.8214C115.139 86.5077 114.961 86.2471 114.721 86.1419L111.554 84.7475C111.468 84.7093 111.413 84.6236 111.413 84.529C111.413 84.4343 111.468 84.3486 111.554 84.3104L114.721 82.916C114.961 82.8103 115.139 82.5497 115.187 82.2365L116.835 71.4437C116.853 71.3275 116.952 71.2412 117.069 71.2412C117.186 71.2412 117.286 71.327 117.304 71.4437L118.951 82.2365C118.999 82.5502 119.178 82.8109 119.418 82.916L122.584 84.3104C122.671 84.3486 122.726 84.4343 122.726 84.529C122.726 84.6236 122.671 84.7093 122.584 84.7475L119.417 86.1419C119.177 86.2476 118.999 86.5077 118.951 86.8214L117.303 97.617C117.285 97.7332 117.186 97.8195 117.069 97.8195H117.069ZM112.241 84.529L114.911 85.7048C115.298 85.8752 115.584 86.2753 115.656 86.7489L117.069 96.0095L118.483 86.7489C118.555 86.2753 118.84 85.8752 119.228 85.7048L121.898 84.529L119.228 83.3531C118.84 83.1827 118.555 82.7826 118.483 82.309L117.069 73.0512L115.656 82.309C115.584 82.7826 115.298 83.1827 114.911 83.3531L112.241 84.529Z" fill="#A589C7"/>
<path d="M121.669 30.6071L118.503 32.0015C118.188 32.1404 117.958 32.468 117.898 32.8636L116.25 43.6591L114.602 32.8636C114.541 32.468 114.311 32.1404 113.996 32.0015L110.83 30.6071L113.997 29.2127C114.312 29.0738 114.542 28.7463 114.603 28.3506L116.25 17.5579L117.898 28.3506C117.959 28.7463 118.189 29.0738 118.504 29.2127L121.671 30.6071H121.669Z" fill="#A589C7"/>
<path d="M116.249 43.8981C116.132 43.8981 116.032 43.8124 116.015 43.6956L114.367 32.9001C114.319 32.5864 114.14 32.3257 113.901 32.22L110.734 30.8256C110.648 30.7875 110.592 30.7017 110.592 30.6071C110.592 30.5125 110.648 30.4267 110.734 30.3885L113.901 28.9941C114.141 28.8884 114.32 28.6278 114.367 28.3146L116.015 17.5219C116.033 17.4057 116.132 17.3193 116.25 17.3193C116.367 17.3193 116.466 17.4051 116.484 17.5219L118.132 28.3146C118.18 28.6284 118.358 28.889 118.598 28.9941L121.764 30.3885C121.851 30.4267 121.906 30.5125 121.906 30.6071C121.906 30.7017 121.851 30.7875 121.764 30.8256L118.598 32.22C118.358 32.3257 118.179 32.5864 118.131 32.8995L116.483 43.6956C116.466 43.8118 116.366 43.8981 116.249 43.8981ZM111.421 30.6076L114.091 31.7835C114.478 31.9539 114.763 32.3545 114.836 32.8282L116.249 42.0882L117.663 32.8276C117.735 32.354 118.02 31.9539 118.407 31.7835L121.077 30.6076L118.407 29.4318C118.02 29.2614 117.735 28.8613 117.663 28.3877L116.249 19.1298L114.836 28.3877C114.763 28.8613 114.478 29.2614 114.091 29.4318L111.421 30.6076Z" fill="#A589C7"/>
<path d="M42.8999 38.082L39.7336 39.4764C39.4184 39.6153 39.1885 39.9428 39.128 40.3385L37.4802 51.134L35.8324 40.3385C35.7719 39.9428 35.5415 39.6153 35.2269 39.4764L32.0605 38.082L35.2274 36.6876C35.542 36.5487 35.7725 36.2211 35.833 35.8255L37.4808 25.0327L39.1286 35.8255C39.1891 36.2211 39.4195 36.5487 39.7341 36.6876L42.901 38.082H42.8999Z" fill="#A589C7"/>
<path d="M37.48 51.3724C37.3628 51.3724 37.2633 51.2867 37.2457 51.1699L35.5979 40.3744C35.55 40.0607 35.3713 39.8 35.1315 39.6949L31.9651 38.3005C31.8788 38.2623 31.8232 38.1766 31.8232 38.0819C31.8232 37.9873 31.8788 37.9015 31.9651 37.8634L35.132 36.469C35.3718 36.3633 35.5506 36.1027 35.5984 35.7895L37.2462 24.9967C37.2638 24.8805 37.3634 24.7942 37.4805 24.7942C37.5977 24.7942 37.6972 24.88 37.7148 24.9967L39.3626 35.7895C39.4105 36.1032 39.5892 36.3638 39.829 36.469L42.9954 37.8634C43.0817 37.9015 43.1373 37.9873 43.1373 38.0819C43.1373 38.1766 43.0817 38.2623 42.9954 38.3005L39.829 39.6949C39.5892 39.8006 39.4105 40.0612 39.3626 40.3744L37.7148 51.1699C37.6972 51.2861 37.5977 51.3724 37.4805 51.3724H37.48ZM32.6515 38.0819L35.3218 39.2578C35.709 39.4282 35.9944 39.8283 36.0665 40.3019L37.48 49.5625L38.8935 40.3019C38.9661 39.8283 39.251 39.4282 39.6382 39.2578L42.3084 38.0819L39.6382 36.9061C39.251 36.7357 38.9655 36.3356 38.8935 35.862L37.48 26.6041L36.0665 35.862C35.9944 36.3356 35.709 36.7357 35.3218 36.9061L32.6515 38.0819Z" fill="#A589C7"/>
<path d="M44.0264 84.1708L40.8601 85.5652C40.5449 85.7041 40.315 86.0317 40.2545 86.4273L38.6067 97.2229L36.9589 86.4273C36.8984 86.0317 36.668 85.7041 36.3534 85.5652L33.187 84.1708L36.3539 82.7764C36.6685 82.6376 36.899 82.31 36.9595 81.9144L38.6073 71.1216L40.2551 81.9144C40.3156 82.31 40.546 82.6376 40.8606 82.7764L44.0275 84.1708H44.0264Z" fill="#A589C7"/>
<path d="M38.6065 97.4619C38.4893 97.4619 38.3898 97.3761 38.3722 97.2593L36.7244 86.4638C36.6765 86.1501 36.4978 85.8895 36.258 85.7838L33.0916 84.3894C33.0053 84.3512 32.9497 84.2654 32.9497 84.1708C32.9497 84.0762 33.0053 83.9904 33.0916 83.9522L36.2585 82.5578C36.4983 82.4521 36.6771 82.1915 36.7249 81.8783L38.3727 71.0856C38.3903 70.9694 38.4899 70.8831 38.607 70.8831C38.7242 70.8831 38.8237 70.9688 38.8413 71.0856L40.4891 81.8783C40.537 82.1921 40.7157 82.4527 40.9555 82.5578L44.1219 83.9522C44.2082 83.9904 44.2638 84.0762 44.2638 84.1708C44.2638 84.2654 44.2082 84.3512 44.1219 84.3894L40.9555 85.7838C40.7157 85.8895 40.537 86.1501 40.4891 86.4638L38.8413 97.2593C38.8237 97.3755 38.7242 97.4619 38.607 97.4619H38.6065ZM33.778 84.1714L36.4483 85.3472C36.8355 85.5176 37.1209 85.9177 37.193 86.3913L38.6065 95.6519L40.02 86.3913C40.0926 85.9177 40.3775 85.5176 40.7647 85.3472L43.4349 84.1714L40.7647 82.9955C40.3775 82.8251 40.092 82.425 40.02 81.9514L38.6065 72.6936L37.193 81.9514C37.1204 82.425 36.8355 82.8251 36.4483 82.9955L33.778 84.1714Z" fill="#A589C7"/>
<path d="M130.318 55.1656L128.14 56.1252C127.923 56.2203 127.765 56.4461 127.723 56.7183L126.59 64.1457L125.456 56.7183C125.414 56.4461 125.256 56.2209 125.04 56.1252L122.861 55.1656L125.04 54.2061C125.257 54.1109 125.415 53.8852 125.456 53.6129L126.59 46.1877L127.723 53.6129C127.765 53.8852 127.924 54.1104 128.14 54.2061L130.318 55.1656Z" fill="#A589C7"/>
<path d="M126.589 64.3842C126.472 64.3842 126.372 64.2985 126.355 64.1817L125.221 56.7543C125.192 56.5634 125.086 56.4063 124.944 56.3438L122.765 55.3843C122.679 55.3461 122.624 55.2602 122.624 55.1656C122.624 55.071 122.679 54.9852 122.765 54.947L124.944 53.9876C125.086 53.925 125.192 53.7679 125.221 53.577L126.355 46.1512C126.372 46.035 126.472 45.9487 126.589 45.9487C126.706 45.9487 126.806 46.0345 126.823 46.1512L127.957 53.5764C127.986 53.7673 128.092 53.9245 128.234 53.987L130.413 54.9465C130.499 54.9847 130.555 55.0704 130.555 55.1651C130.555 55.2597 130.499 55.3455 130.413 55.3837L128.234 56.3432C128.092 56.4057 127.986 56.5629 127.957 56.7538L126.823 64.1812C126.806 64.2974 126.706 64.3837 126.589 64.3837V64.3842ZM123.451 55.1662L125.133 55.9072C125.422 56.0344 125.636 56.3316 125.689 56.6824L126.588 62.5743L127.488 56.6824C127.541 56.3316 127.754 56.0344 128.044 55.9072L129.726 55.1662L128.043 54.4252C127.754 54.298 127.541 54.0008 127.487 53.65L126.588 47.7598L125.689 53.65C125.635 54.0008 125.422 54.298 125.133 54.4252L123.45 55.1662H123.451Z" fill="#A589C7"/>
<path d="M31.1464 62.6446L28.9678 63.6041C28.7511 63.6993 28.5927 63.925 28.5515 64.1973L27.4179 71.6247L26.2844 64.1973C26.2426 63.925 26.0842 63.6998 25.868 63.6041L23.6895 62.6446L25.868 61.6852C26.0847 61.59 26.2431 61.3642 26.2844 61.092L27.4179 53.6667L28.5515 61.092C28.5933 61.3642 28.7517 61.5894 28.9678 61.6852L31.1464 62.6446Z" fill="#A589C7"/>
<path d="M27.4172 71.8631C27.3 71.8631 27.2005 71.7774 27.1829 71.6606L26.0493 64.2332C26.0202 64.0423 25.914 63.8852 25.7721 63.8226L23.5936 62.8632C23.5072 62.825 23.4517 62.7392 23.4517 62.6446C23.4517 62.55 23.5072 62.4642 23.5936 62.426L25.7721 61.4665C25.914 61.404 26.0202 61.2469 26.0493 61.056L27.1829 53.6307C27.2005 53.5145 27.3 53.4282 27.4172 53.4282C27.5343 53.4282 27.6339 53.514 27.6515 53.6307L28.785 61.056C28.8142 61.2469 28.9203 61.404 29.0622 61.4665L31.2408 62.426C31.3271 62.4642 31.3827 62.55 31.3827 62.6446C31.3827 62.7392 31.3271 62.825 31.2408 62.8632L29.0622 63.8226C28.9203 63.8852 28.8142 64.0423 28.785 64.2332L27.6515 71.6606C27.6339 71.7768 27.5343 71.8631 27.4172 71.8631ZM24.2794 62.6452L25.9619 63.3861C26.2512 63.5133 26.464 63.8105 26.5179 64.1613L27.4172 70.0532L28.3164 64.1613C28.3703 63.8105 28.5832 63.5133 28.8725 63.3861L30.5549 62.6452L28.8725 61.9042C28.5832 61.777 28.3703 61.4798 28.3164 61.129L27.4172 55.2387L26.5179 61.129C26.464 61.4798 26.2512 61.777 25.9619 61.9042L24.2794 62.6452Z" fill="#A589C7"/>
</svg>
